<svg width="936" height="146" viewBox="0 0 936 146" fill="none" xmlns="http://www.w3.org/2000/svg">
<path d="M686.288 113.241L679.963 121.836H714.436C716.179 121.836 716.157 122.492 715.305 123.653C714.44 124.826 712.993 126.857 712.11 128.052C711.662 128.656 710.854 129.756 713.532 129.756H727.629L731.807 124.079C734.398 120.562 732.033 113.246 722.769 113.246L686.288 113.241Z" fill="#2D2D2D"/>
<path d="M677.403 141.241L690.109 123.974H705.876C707.62 123.974 707.598 124.635 706.746 125.791L703.529 130.173C703.081 130.778 702.273 131.877 704.95 131.877H726.069C724.317 134.286 718.613 141.241 708.389 141.241H677.403ZM750.165 131.873L743.275 141.241H725.099L731.99 131.873H750.165ZM778.004 129.752H733.555L745.709 113.241H763.876L756.912 122.709H765.019L771.992 113.241H790.159L778.004 129.752ZM776.444 131.873L769.553 141.241H751.387L758.277 131.873H776.444ZM651.472 135.568H678.242L676.781 137.555H651.472V135.568ZM651.472 131.873H680.963L679.498 133.86H651.472V131.873ZM651.472 139.263H675.525L674.068 141.241H651.472V139.263ZM849.454 137.555H822.78L824.245 135.568H849.454V137.555ZM849.454 141.241H820.072L821.523 139.263H849.454V141.241ZM826.962 131.873H849.454V133.864H825.501L826.962 131.873ZM815.32 113.241L803.165 129.752H783.912L796.075 113.241H815.32ZM782.356 131.873C782.356 131.873 781.03 133.69 780.382 134.56C778.104 137.646 780.117 141.237 787.564 141.237H816.742L823.632 131.873H782.356Z" fill="#2D2D2D"/>
<g clip-path="url(#clip0_304_174)">
<path d="M480.015 114.697L476.901 116.582C476.067 115.202 475.071 113.985 473.4 113.901C472.372 113.826 471.34 113.983 470.381 114.36C468.36 115.244 467.393 117.566 467.88 119.779C468.106 120.829 468.684 121.769 469.518 122.445C470.352 123.121 471.392 123.491 472.466 123.493C474.375 123.56 475.942 122.564 476.464 120.863H471.928V117.44C472.088 117.393 472.253 117.36 472.42 117.345C474.85 117.345 477.281 117.345 479.711 117.345C480.207 117.345 480.545 117.37 480.586 118.037C480.916 122.439 478.181 126.182 474.067 126.899C469.735 127.654 465.675 125.177 464.508 121.063C463.374 117.069 465.112 112.934 468.676 111.158C470.451 110.283 472.473 110.046 474.402 110.486C476.331 110.926 478.05 112.018 479.269 113.576C479.519 113.88 479.719 114.243 480.015 114.697Z" fill="#2D2D2D"/>
<path d="M580.872 132.802L577.749 134.707C576.949 133.319 575.957 132.147 574.343 132.027C573.319 131.929 572.286 132.063 571.321 132.418C569.316 133.252 568.274 135.537 568.699 137.679C568.889 138.75 569.441 139.724 570.263 140.437C571.085 141.149 572.127 141.558 573.214 141.594C574.103 141.683 574.996 141.467 575.746 140.982C576.497 140.498 577.06 139.773 577.345 138.926H572.797V135.445H575.894C577.491 135.445 579.087 135.445 580.684 135.445C581.151 135.445 581.464 135.499 581.484 136.104C581.68 141.41 578.387 144.591 574.552 145.016C571.163 145.391 568.328 144.299 566.452 141.423C564.522 138.467 564.501 135.291 566.298 132.252C568.045 129.309 570.825 128.146 574.177 128.417C577.086 128.662 579.3 130.101 580.872 132.802Z" fill="#2D2D2D"/>
<path d="M562.721 144.904C561.633 144.904 560.637 144.962 559.636 144.874C559.257 144.766 558.934 144.515 558.736 144.174C556.993 141.46 555.284 138.721 553.563 135.995C553.379 135.707 553.183 135.432 552.817 134.89V144.841H549.256V128.583C550.428 128.583 551.566 128.537 552.696 128.617C552.983 128.637 553.317 129.033 553.504 129.304C555.172 131.906 556.802 134.524 558.444 137.137C558.628 137.425 558.824 137.696 559.178 138.217V128.671H562.721V144.904Z" fill="#2D2D2D"/>
<path d="M427.84 144.854H424.351V138.538H419.065V144.887C417.731 144.887 416.527 144.929 415.314 144.845C415.134 144.845 414.851 144.253 414.851 143.932C414.822 139.142 414.83 134.344 414.83 129.559C414.834 129.489 414.834 129.42 414.83 129.35C414.763 128.775 415.001 128.517 415.597 128.554C416.497 128.587 417.402 128.592 418.302 128.554C418.915 128.533 419.074 128.804 419.065 129.367C419.04 130.822 419.065 132.285 419.065 133.74V134.92H424.314V128.667H427.836L427.84 144.854Z" fill="#2D2D2D"/>
<path d="M430.012 136.729C430.012 134.518 430.891 132.397 432.454 130.833C434.018 129.27 436.138 128.392 438.35 128.392C439.448 128.397 440.535 128.619 441.548 129.045C442.561 129.471 443.479 130.092 444.252 130.873C445.024 131.655 445.635 132.581 446.049 133.598C446.464 134.616 446.673 135.705 446.666 136.804C446.645 139.003 445.765 141.107 444.213 142.665C442.661 144.223 440.561 145.112 438.362 145.141C436.142 145.125 434.018 144.231 432.454 142.655C430.89 141.079 430.012 138.949 430.012 136.729ZM443.068 136.729C443.068 135.468 442.571 134.257 441.683 133.361C440.795 132.465 439.59 131.955 438.329 131.943C437.066 131.961 435.861 132.476 434.976 133.377C434.091 134.277 433.597 135.491 433.601 136.754C433.602 138.012 434.099 139.219 434.984 140.113C435.869 141.007 437.071 141.517 438.329 141.531C439.593 141.518 440.801 141.005 441.689 140.105C442.577 139.204 443.073 137.989 443.068 136.725V136.729Z" fill="#2D2D2D"/>
<path d="M490.408 126.995C489.311 126.986 488.227 126.761 487.217 126.333C486.208 125.905 485.293 125.281 484.524 124.499C483.756 123.716 483.15 122.79 482.74 121.772C482.33 120.755 482.126 119.667 482.137 118.57C482.151 116.373 483.027 114.268 484.575 112.709C486.124 111.15 488.223 110.261 490.42 110.233C492.635 110.254 494.752 111.147 496.313 112.718C497.874 114.29 498.752 116.414 498.757 118.629C498.759 120.845 497.88 122.971 496.314 124.54C494.748 126.109 492.624 126.992 490.408 126.995ZM490.449 123.427C491.712 123.407 492.916 122.892 493.803 121.993C494.689 121.094 495.187 119.883 495.189 118.62C495.184 117.359 494.682 116.15 493.793 115.255C492.904 114.361 491.698 113.852 490.437 113.839C489.174 113.856 487.969 114.37 487.081 115.268C486.194 116.167 485.695 117.378 485.693 118.641C485.699 119.901 486.2 121.108 487.087 122.003C487.974 122.898 489.177 123.409 490.437 123.427H490.449Z" fill="#2D2D2D"/>
<path d="M516.933 118.654C516.933 119.748 516.717 120.833 516.298 121.844C515.879 122.856 515.265 123.775 514.491 124.549C513.717 125.323 512.798 125.937 511.786 126.356C510.775 126.775 509.69 126.991 508.595 126.991C506.399 126.973 504.3 126.086 502.756 124.523C501.213 122.96 500.352 120.85 500.362 118.654C500.353 117.558 500.559 116.471 500.969 115.454C501.38 114.438 501.987 113.513 502.756 112.732C503.524 111.95 504.439 111.328 505.448 110.901C506.458 110.474 507.541 110.249 508.637 110.241C510.851 110.262 512.967 111.159 514.521 112.735C516.076 114.312 516.943 116.44 516.933 118.654ZM513.364 118.608C513.362 117.346 512.861 116.137 511.971 115.244C511.081 114.35 509.873 113.845 508.612 113.839C507.987 113.844 507.369 113.973 506.794 114.219C506.219 114.464 505.698 114.821 505.261 115.268C504.824 115.716 504.48 116.245 504.249 116.826C504.018 117.407 503.904 118.028 503.914 118.654C503.911 119.279 504.032 119.898 504.269 120.477C504.506 121.055 504.855 121.581 505.296 122.024C505.736 122.468 506.26 122.82 506.837 123.061C507.414 123.301 508.033 123.426 508.658 123.427C509.92 123.407 511.122 122.889 512.004 121.987C512.885 121.084 513.374 119.869 513.364 118.608Z" fill="#2D2D2D"/>
<path d="M519.2 126.937V110.475C521.806 110.529 524.378 110.17 526.879 110.962C530.36 112.067 532.386 115.056 532.298 118.845C532.202 122.568 529.914 125.69 526.32 126.411C524.024 126.866 521.635 126.774 519.2 126.937ZM522.802 123.368C524.932 123.448 526.808 123.068 527.959 121.196C528.486 120.407 528.763 119.477 528.755 118.528C528.747 117.578 528.453 116.654 527.913 115.873C526.733 114.056 524.845 113.826 522.802 113.905V123.368Z" fill="#2D2D2D"/>
<path d="M493.113 133.998C494.393 132.402 495.648 130.784 496.977 129.229C497.319 128.875 497.776 128.654 498.266 128.604C499.358 128.517 500.467 128.575 501.817 128.575C501.446 129.075 501.221 129.409 500.983 129.705C499.733 131.247 498.524 132.81 497.232 134.29C496.765 134.84 496.777 135.236 497.123 135.841C498.649 138.484 500.125 141.164 501.613 143.832C501.776 144.12 501.909 144.428 502.138 144.883C500.829 144.883 499.658 144.929 498.495 144.849C498.22 144.849 497.886 144.432 497.719 144.162C496.531 142.048 495.381 139.914 494.172 137.704C493.338 138.5 492.746 139.226 492.83 140.414C492.934 141.856 492.855 143.332 492.855 144.879C491.733 144.879 490.729 144.929 489.745 144.837C489.553 144.837 489.282 144.241 489.282 143.92C489.249 139.751 489.282 135.582 489.282 131.414C489.248 130.686 489.258 129.956 489.311 129.229C489.345 128.983 489.728 128.775 489.962 128.562C489.999 128.529 490.095 128.562 490.166 128.562C492.875 128.479 492.875 128.479 492.875 131.159V133.952L493.113 133.998Z" fill="#2D2D2D"/>
<path d="M513.485 144.849H503.693C503.668 144.478 503.631 144.145 503.631 143.811C503.631 139.122 503.631 134.436 503.61 129.746C503.61 128.867 503.785 128.529 504.744 128.554C507.312 128.621 509.884 128.554 512.451 128.579C512.789 128.579 513.127 128.617 513.498 128.637V132.018H507.357V134.936H513.469V138.4H507.357V141.377H513.485V144.849Z" fill="#2D2D2D"/>
<path d="M526.141 144.849H516.349V128.592H519.588C521.497 128.592 523.407 128.617 525.312 128.592C525.983 128.592 526.254 128.783 526.216 129.48C526.166 130.313 526.216 131.147 526.216 132.077H519.926V134.974H526.125V138.48H519.926V141.398H526.141V144.849Z" fill="#2D2D2D"/>
<path d="M476.68 144.829V128.662H486.41V132.022H480.299V134.94H486.402V138.43H480.274V141.389H486.406V144.824L476.68 144.829Z" fill="#2D2D2D"/>
<path d="M457.088 128.633H460.589C460.614 128.983 460.656 129.284 460.656 129.584C460.656 132.739 460.656 135.899 460.656 139.055C460.631 144.02 455.8 146.792 451.46 144.328C450.658 143.894 449.99 143.251 449.524 142.467C449.059 141.683 448.815 140.788 448.817 139.876C448.721 136.166 448.788 132.456 448.788 128.662H452.331V129.784C452.331 132.839 452.331 135.891 452.331 138.955C452.331 140.464 452.998 141.406 454.14 141.644C455.745 141.985 457.058 140.893 457.058 139.142C457.083 136.053 457.058 132.969 457.058 129.88L457.088 128.633Z" fill="#2D2D2D"/>
<path d="M474.237 131.034L471.319 133.252C470.64 132.223 469.752 131.618 468.531 131.668C467.697 131.701 466.971 131.914 466.792 132.835C466.613 133.757 467.301 134.086 467.959 134.324C468.96 134.72 469.994 135.028 470.994 135.42C473.495 136.404 474.542 137.921 474.413 140.289C474.296 142.452 472.799 144.182 470.469 144.849C467.551 145.683 463.878 144.391 462.223 141.865L465.337 139.409C465.629 139.78 465.863 140.122 466.134 140.426C467.084 141.489 468.564 141.981 469.589 141.41C469.847 141.263 470.071 141.064 470.248 140.826C470.424 140.588 470.549 140.315 470.615 140.026C470.661 139.609 470.161 138.926 469.727 138.726C468.572 138.184 467.309 137.892 466.117 137.408C464.379 136.729 463.199 135.587 463.082 133.581C462.999 132.498 463.293 131.418 463.916 130.527C464.538 129.635 465.45 128.987 466.496 128.692C467.872 128.254 469.348 128.244 470.73 128.662C472.112 129.081 473.335 129.908 474.237 131.034Z" fill="#2D2D2D"/>
<path d="M528.997 128.708C531.348 128.708 533.62 128.496 535.833 128.758C538.751 129.1 540.694 131.843 540.536 134.832C540.481 136.252 539.906 137.603 538.92 138.626C537.933 139.65 536.605 140.274 535.187 140.381C534.354 140.439 533.52 140.381 532.561 140.381V144.833H528.997V128.708ZM532.586 137.008C534.141 137.008 535.679 137.362 536.596 135.799C536.86 135.386 536.992 134.903 536.975 134.413C536.958 133.923 536.793 133.45 536.5 133.056C535.508 131.639 534.037 131.993 532.586 132.022V137.008Z" fill="#2D2D2D"/>
<path d="M546.172 144.791C542.624 145.308 542.624 145.308 542.624 141.94C542.624 137.842 542.649 133.748 542.624 129.655C542.624 128.783 542.874 128.479 543.741 128.554C544.525 128.621 545.321 128.554 546.192 128.554L546.172 144.791Z" fill="#2D2D2D"/>
</g>
<g clip-path="url(#clip1_304_174)">
<path d="M249.302 134.977V135.268C249.302 137.701 249.311 140.134 249.295 142.568C249.295 143.131 249.074 143.635 248.75 144.106C248.324 144.726 247.697 144.983 247.016 145.154C246.753 145.211 246.485 145.238 246.215 145.236C245.645 145.247 245.074 145.236 244.484 145.236V116.535C244.55 116.535 244.624 116.526 244.699 116.526C246.123 116.526 247.547 116.531 248.971 116.52C249.197 116.52 249.241 116.595 249.238 116.802C249.227 117.49 249.234 118.179 249.234 118.867V119.196C249.313 119.102 249.351 119.063 249.383 119.018C249.705 118.575 250.04 118.151 250.477 117.805C250.947 117.435 251.431 117.091 251.984 116.866C252.507 116.656 253.047 116.49 253.586 116.322C254.088 116.17 254.611 116.097 255.135 116.106C255.435 116.106 255.74 116.021 256.035 116.052C256.786 116.13 257.544 116.167 258.288 116.367C258.958 116.549 259.615 116.753 260.222 117.083C260.706 117.347 261.167 117.652 261.6 117.994C262.043 118.338 262.452 118.724 262.82 119.147C263.389 119.807 263.85 120.554 264.184 121.36C264.458 122.032 264.693 122.72 264.885 123.42C265.024 123.961 265.118 124.513 265.167 125.07C265.251 125.815 265.295 126.565 265.298 127.316C265.281 127.9 265.213 128.481 265.094 129.053C264.975 129.76 264.811 130.46 264.604 131.147C264.331 132.031 263.919 132.866 263.383 133.621C262.991 134.174 262.558 134.698 262.089 135.188C261.585 135.711 260.994 136.142 260.343 136.463C259.776 136.75 259.193 137.003 258.596 137.22C258.092 137.376 257.575 137.485 257.05 137.543C256.462 137.629 255.869 137.673 255.274 137.675C254.772 137.669 254.271 137.555 253.772 137.487C252.911 137.36 252.082 137.074 251.326 136.642C250.965 136.439 250.624 136.201 250.308 135.932C249.959 135.647 249.649 135.312 249.302 134.977ZM260.358 126.8C260.325 126.33 260.331 125.852 260.248 125.392C260.147 124.898 260.011 124.413 259.841 123.938C259.644 123.354 259.331 122.815 258.921 122.354C258.394 121.754 257.795 121.245 257.038 120.923C256.425 120.66 255.769 120.509 255.103 120.477C254.64 120.465 254.178 120.507 253.726 120.604C253.306 120.68 252.896 120.808 252.506 120.984C251.82 121.29 251.22 121.761 250.76 122.355C250.459 122.75 250.195 123.173 249.972 123.617C249.571 124.432 249.402 125.307 249.324 126.186C249.276 126.837 249.3 127.492 249.394 128.138C249.478 128.659 249.615 129.169 249.801 129.662C250.103 130.546 250.631 131.334 251.334 131.949C251.751 132.325 252.227 132.631 252.743 132.854C253.29 133.077 253.867 133.216 254.456 133.268C255.113 133.325 255.774 133.252 256.403 133.052C257.464 132.742 258.392 132.089 259.042 131.196C259.7 130.294 260.075 129.266 260.257 128.171C260.329 127.723 260.325 127.261 260.358 126.8Z" fill="#2D2D2D"/>
<path d="M286.901 128.214H271.807C271.861 128.582 271.876 128.931 271.968 129.257C272.089 129.707 272.25 130.145 272.45 130.566C272.631 130.926 272.896 131.245 273.133 131.576C273.602 132.233 274.266 132.659 274.976 133.006C275.525 133.283 276.125 133.446 276.74 133.484C277.094 133.502 277.453 133.572 277.804 133.543C278.505 133.483 279.2 133.381 279.855 133.073C280.46 132.792 281.011 132.446 281.432 131.933C281.723 131.579 281.952 131.173 282.219 130.798C282.27 130.721 282.349 130.667 282.44 130.648C283.894 130.64 285.35 130.643 286.804 130.644C286.842 130.649 286.881 130.656 286.918 130.666C286.856 130.915 286.805 131.163 286.731 131.404C286.442 132.331 286.004 133.204 285.435 133.989C285.027 134.564 284.546 135.083 284.004 135.534C283.481 135.987 282.906 136.379 282.292 136.701C281.69 136.985 281.067 137.221 280.427 137.405C279.919 137.57 279.395 137.684 278.864 137.744C278.129 137.828 277.389 137.851 276.651 137.813C275.565 137.747 274.494 137.514 273.478 137.122C272.703 136.821 271.966 136.429 271.283 135.956C270.638 135.497 270.048 134.965 269.524 134.372C269.15 133.943 268.812 133.484 268.513 133C268.255 132.599 268.033 132.176 267.852 131.735C267.619 131.161 267.423 130.573 267.265 129.974C267.128 129.451 267.064 128.907 266.983 128.37C266.945 128.128 266.933 127.881 266.912 127.636C266.887 127.336 266.832 127.032 266.851 126.735C266.9 125.99 266.936 125.238 267.065 124.503C267.208 123.684 267.408 122.868 267.788 122.117C268.113 121.474 268.405 120.803 268.82 120.219C269.292 119.565 269.826 118.958 270.416 118.407C271.199 117.684 272.103 117.106 273.088 116.699C273.722 116.43 274.383 116.229 275.059 116.097C275.902 115.929 276.762 115.866 277.62 115.909C278.116 115.935 278.607 116.047 279.102 116.102C279.901 116.204 280.679 116.425 281.412 116.759C281.999 117.015 282.538 117.385 283.095 117.715C283.651 118.044 284.087 118.539 284.518 119.014C284.854 119.403 285.158 119.818 285.428 120.257C285.889 120.985 286.239 121.778 286.466 122.609C286.596 123.071 286.679 123.548 286.787 124.017C287.043 125.126 286.997 126.252 286.991 127.376C286.98 127.645 286.932 127.91 286.901 128.214ZM271.937 124.538H281.981C281.944 124.271 281.909 124.02 281.872 123.769C281.772 123.092 281.498 122.451 281.078 121.91C280.661 121.34 280.107 120.885 279.466 120.588C279.125 120.439 278.768 120.327 278.403 120.255C277.908 120.161 277.404 120.098 276.901 120.048C276.723 120.031 276.537 120.09 276.354 120.113C276.147 120.129 275.941 120.157 275.737 120.196C275.178 120.331 274.645 120.561 274.163 120.874C273.686 121.176 273.271 121.565 272.938 122.021C272.569 122.512 272.293 123.066 272.123 123.656C272.049 123.939 272.001 124.23 271.937 124.538Z" fill="#2D2D2D"/>
<path d="M323.432 126.873C323.422 126.693 323.422 126.513 323.432 126.333C323.492 125.76 323.575 125.191 323.632 124.618C323.705 123.867 323.936 123.159 324.212 122.475C324.498 121.803 324.833 121.153 325.214 120.531C325.66 119.769 326.263 119.123 326.922 118.547C327.397 118.142 327.898 117.769 328.424 117.431C329.112 116.992 329.858 116.653 330.641 116.425C331.078 116.29 331.53 116.207 331.977 116.11C332.856 115.926 333.756 115.859 334.652 115.91C335.157 115.938 335.66 116.005 336.154 116.111C336.797 116.242 337.433 116.407 338.059 116.603C338.683 116.817 339.282 117.1 339.843 117.448C340.672 117.949 341.424 118.57 342.073 119.29C342.55 119.813 342.97 120.386 343.323 120.999C343.763 121.757 344.106 122.567 344.346 123.41C344.457 123.798 344.522 124.198 344.617 124.592C344.868 125.629 344.84 126.686 344.813 127.738C344.791 128.198 344.725 128.654 344.616 129.101C344.476 129.734 344.318 130.365 344.126 130.984C343.885 131.713 343.549 132.407 343.126 133.049C342.657 133.782 342.133 134.474 341.475 135.044C340.982 135.473 340.46 135.869 339.914 136.228C339.11 136.745 338.233 137.137 337.313 137.391C336.822 137.531 336.308 137.589 335.811 137.695C335.045 137.858 334.267 137.854 333.494 137.823C333.004 137.796 332.517 137.73 332.037 137.626C331.458 137.523 330.887 137.379 330.329 137.197C329.789 136.996 329.266 136.755 328.764 136.474C328.315 136.239 327.887 135.968 327.481 135.664C327.1 135.356 326.74 135.023 326.402 134.668C325.78 134.026 325.247 133.303 324.816 132.519C324.423 131.799 324.108 131.039 323.878 130.251C323.739 129.758 323.64 129.253 323.583 128.744C323.497 128.125 323.451 127.501 323.388 126.879L323.432 126.873ZM339.78 126.882H339.813C339.778 126.458 339.768 126.03 339.702 125.611C339.64 125.133 339.534 124.662 339.387 124.203C339.169 123.568 338.844 122.975 338.424 122.45C338.095 122.028 337.703 121.659 337.262 121.355C336.78 121.034 336.268 120.764 335.697 120.641C335.225 120.523 334.743 120.444 334.258 120.404C333.842 120.392 333.427 120.436 333.023 120.535C332.536 120.634 332.061 120.786 331.608 120.989C330.963 121.299 330.365 121.703 329.933 122.303C329.652 122.688 329.339 123.054 329.127 123.477C328.654 124.43 328.407 125.48 328.407 126.543C328.398 127.234 328.395 127.927 328.555 128.601C328.704 129.265 328.942 129.906 329.265 130.505C329.722 131.36 330.404 132.074 331.236 132.57C332.109 133.085 333.058 133.4 334.093 133.345C334.515 133.326 334.935 133.28 335.352 133.207C335.698 133.145 336.037 133.046 336.362 132.91C336.697 132.774 337.014 132.596 337.305 132.381C337.668 132.114 337.999 131.806 338.293 131.464C338.616 131.074 338.897 130.65 339.133 130.202C339.318 129.833 339.456 129.442 339.545 129.039C339.651 128.56 339.731 128.076 339.783 127.588C339.797 127.353 339.796 127.117 339.78 126.882Z" fill="#2D2D2D"/>
<path d="M317.427 129.48H322.065C322.023 129.848 322.023 130.207 321.936 130.543C321.796 131.114 321.616 131.674 321.397 132.219C321.207 132.683 320.966 133.124 320.676 133.533C320.299 134.088 319.871 134.607 319.398 135.083C318.882 135.557 318.329 135.987 317.744 136.371C317.063 136.84 316.294 137.15 315.506 137.385C315.01 137.533 314.488 137.591 313.979 137.695C313.294 137.828 312.594 137.872 311.897 137.825C311.355 137.794 310.815 137.701 310.275 137.629C309.055 137.466 307.94 136.989 306.872 136.401C306.48 136.175 306.106 135.917 305.754 135.63C305.36 135.329 304.987 135.001 304.637 134.649C304.016 134.026 303.492 133.313 303.084 132.533C302.761 131.89 302.469 131.229 302.209 130.562C302.056 130.167 301.982 129.739 301.891 129.322C301.75 128.721 301.678 128.107 301.676 127.49C301.676 127.15 301.6 126.807 301.623 126.47C301.659 125.916 301.726 125.365 301.825 124.819C301.92 124.201 302.061 123.59 302.247 122.993C302.472 122.383 302.739 121.789 303.047 121.216C303.264 120.818 303.501 120.431 303.758 120.057C303.859 119.903 303.971 119.756 304.093 119.617C304.562 119.079 305.036 118.546 305.632 118.145C306.211 117.756 306.779 117.343 307.39 117.012C308.053 116.657 308.761 116.397 309.496 116.239C310.075 116.113 310.649 115.982 311.244 115.968C311.779 115.956 312.319 115.875 312.848 115.917C313.555 115.978 314.263 116.043 314.959 116.23C315.704 116.43 316.432 116.658 317.112 117.016C317.689 117.32 318.254 117.651 318.734 118.108C319.037 118.397 319.379 118.651 319.65 118.968C320.002 119.385 320.327 119.824 320.624 120.282C321.07 120.961 321.353 121.718 321.587 122.491C321.684 122.853 321.762 123.219 321.821 123.589C321.855 123.769 321.869 123.954 321.892 124.136C321.913 124.292 321.844 124.338 321.692 124.336C320.972 124.331 320.253 124.336 319.533 124.336C318.829 124.336 318.125 124.33 317.421 124.341C317.242 124.341 317.171 124.266 317.126 124.119C316.906 123.363 316.525 122.664 316.009 122.069C315.371 121.343 314.587 120.9 313.662 120.661C313.12 120.506 312.556 120.442 311.993 120.473C311.311 120.512 310.64 120.667 310.01 120.932C309.314 121.23 308.69 121.674 308.179 122.234C307.686 122.763 307.311 123.392 307.08 124.077C306.915 124.593 306.742 125.116 306.679 125.65C306.606 126.274 306.497 126.907 306.648 127.545C306.751 127.984 306.766 128.443 306.868 128.883C307.004 129.458 307.224 130.01 307.52 130.521C307.82 131.027 308.194 131.486 308.631 131.882C309.175 132.396 309.83 132.777 310.546 132.995C311.259 133.215 311.995 133.345 312.737 133.267C313.303 133.22 313.858 133.093 314.388 132.891C315.022 132.646 315.598 132.27 316.078 131.787C316.721 131.149 317.187 130.354 317.427 129.48Z" fill="#2D2D2D"/>
<path d="M287.705 120.941V116.529C288.146 116.529 288.576 116.552 289.002 116.524C289.804 116.471 290.549 116.243 291.109 115.63C291.447 115.254 291.704 114.815 291.766 114.309C291.844 113.713 291.888 113.11 291.907 112.509C291.929 111.758 291.911 111.007 291.911 110.245H296.403V116.529H296.708C297.936 116.529 299.164 116.529 300.392 116.529C300.572 116.529 300.635 116.571 300.634 116.763C300.625 118.077 300.625 119.391 300.634 120.705C300.634 120.905 300.57 120.953 300.38 120.951C299.159 120.944 297.939 120.951 296.719 120.951H296.418C296.413 121.056 296.404 121.139 296.404 121.222C296.404 124.459 296.385 127.699 296.416 130.937C296.425 131.791 296.85 132.626 297.856 132.875C298.425 133.024 299.019 133.051 299.599 132.954C299.946 132.893 300.304 132.896 300.677 132.869V136.978C300.099 137.202 299.487 137.327 298.867 137.348C298.21 137.37 297.559 137.442 296.911 137.398C296.39 137.365 295.879 137.204 295.361 137.093C294.742 136.959 294.195 136.655 293.688 136.293C293.152 135.911 292.679 135.448 292.374 134.854C292.143 134.406 291.937 133.945 291.756 133.474C291.663 133.206 291.603 132.928 291.577 132.645C291.291 130.251 291.483 127.846 291.441 125.447C291.414 124.031 291.432 122.616 291.441 121.199C291.441 120.993 291.387 120.934 291.179 120.936C290.123 120.947 289.067 120.936 288.011 120.936L287.705 120.941Z" fill="#2D2D2D"/>
</g>
<g clip-path="url(#clip2_304_174)">
<path d="M160.057 110.416V144.522H152.301V110.241H159.999L160.057 110.416ZM110.534 144.523L108.866 139.567H96.9574L95.1515 144.523H86L99.5095 110.241H106.409L119.778 144.522H110.534V144.523ZM134.186 145.242C124.875 145.242 120.403 137.877 120.403 131.579C120.403 125.282 124.875 117.911 134.186 117.911C143.497 117.911 147.973 125.279 147.973 131.579C147.973 137.88 143.502 145.242 134.186 145.242ZM169.328 144.765C168.309 144.765 167.312 144.462 166.465 143.895C165.617 143.328 164.957 142.523 164.567 141.581C164.177 140.639 164.076 139.602 164.275 138.602C164.474 137.603 164.965 136.684 165.686 135.963C166.407 135.243 167.326 134.752 168.326 134.553C169.326 134.355 170.362 134.457 171.304 134.847C172.246 135.237 173.051 135.898 173.617 136.746C174.184 137.594 174.486 138.59 174.486 139.61C174.485 140.977 173.941 142.288 172.974 143.255C172.007 144.222 170.696 144.765 169.328 144.765ZM99.3676 132.619H106.554L102.96 120.667L99.3676 132.619ZM134.186 125.094C130.868 125.094 128.059 127.829 128.059 131.579C128.059 135.329 130.871 138.059 134.186 138.059C137.501 138.059 140.319 135.33 140.319 131.579C140.319 127.829 137.507 125.094 134.186 125.094Z" fill="#2D2D2D"/>
</g>
<g clip-path="url(#clip3_304_174)">
<path d="M795.536 10.8881C795.536 10.8881 798.989 25.0366 799.54 27.3331C800.183 30.0135 801.342 31.0001 804.683 30.3348L806.839 21.5628C807.385 19.3839 807.752 17.8305 808.103 15.614H808.165C808.412 17.8523 808.763 19.3904 809.213 21.5704C809.213 21.5704 810.091 25.5527 810.54 27.6443C810.991 29.7351 812.245 31.0529 815.518 30.3355L820.655 10.8896H816.507L814.753 19.297C814.282 21.7442 813.854 23.6564 813.524 25.8953H813.465C813.166 23.6788 812.784 21.8423 812.305 19.458L810.479 10.8896H806.157L804.204 19.2421C803.651 21.7802 803.133 23.8297 802.804 25.9926H802.744C802.407 23.9557 801.958 21.3798 801.472 18.9229C801.472 18.9229 800.311 12.9488 799.904 10.8896L795.536 10.8901L795.536 10.8881ZM835.075 10.8881V30.334H839.024V26.2048V10.8872H835.075V10.8881ZM890.692 10.8881V25.2337C890.692 27.2116 891.065 28.5973 891.861 29.4439C892.557 30.1843 893.703 30.6637 895.076 30.6637C896.243 30.6637 897.392 30.4423 897.934 30.2407L897.883 27.1547C897.48 27.2538 897.016 27.3332 896.383 27.3332C895.037 27.3332 894.586 26.4716 894.586 24.6957V19.2071H898.025V15.4866H894.586V10.8881H890.692L890.692 10.8881ZM826.25 15.3961C823.796 15.3961 821.848 16.0851 820.786 16.6988L821.563 19.3599C822.535 18.7472 824.083 18.24 825.548 18.24C827.974 18.2338 828.37 19.6117 828.37 20.4954V20.7044C823.084 20.6964 819.745 22.5255 819.745 26.254C819.745 28.5304 821.445 30.6637 824.401 30.6637C826.22 30.6637 827.742 29.9381 828.653 28.7755H828.743C828.743 28.7755 829.347 31.3003 832.674 30.3348C832.499 29.284 832.442 28.1636 832.442 26.8141V21.6192C832.442 18.3083 831.028 15.3961 826.25 15.3961L826.25 15.3961ZM849.872 15.3961C847.401 15.3961 846.291 16.6484 845.618 17.7108H845.559V15.7258H841.79V30.335H845.76V21.7673C845.76 21.3657 845.806 20.9409 845.947 20.5714C846.275 19.7088 847.078 18.6998 848.359 18.6998C849.961 18.6998 850.711 20.0541 850.711 22.0085V30.3348H854.676V21.6635C854.676 21.2801 854.729 20.8183 854.842 20.4793C855.168 19.4981 856.033 18.6997 857.224 18.6997C858.848 18.6997 859.627 20.0304 859.627 22.3302V30.3348H863.596V21.7305C863.596 17.1928 861.292 15.3961 858.691 15.3961C857.539 15.3961 856.63 15.685 855.808 16.1896C855.117 16.6136 854.498 17.216 853.958 18.0092H853.899C853.27 16.4348 851.794 15.3961 849.872 15.3961L849.872 15.3961ZM871.673 15.3961C869.219 15.3961 867.271 16.0851 866.208 16.6988L866.987 19.3599C867.958 18.7472 869.506 18.24 870.97 18.24C873.395 18.2338 873.792 19.6117 873.792 20.4954V20.7044C868.507 20.6964 865.168 22.5255 865.168 26.254C865.168 28.5304 866.868 30.6637 869.825 30.6637C871.643 30.6637 873.165 29.9381 874.075 28.7755H874.165C874.165 28.7755 874.769 31.3003 878.096 30.3348C877.921 29.284 877.865 28.1636 877.865 26.8141V21.6192C877.865 18.3083 876.451 15.3961 871.673 15.3961L871.673 15.3961ZM888.159 15.3961C886.639 15.3961 884.909 16.3774 884.183 18.4809H884.072V15.7257H880.498V30.3348H884.572V22.854C884.572 22.4504 884.597 22.0985 884.661 21.7759C884.962 20.2088 886.161 19.2071 887.881 19.2071C888.353 19.2071 888.691 19.2582 889.057 19.311V15.4864C888.75 15.4245 888.54 15.3959 888.159 15.3959L888.159 15.3961ZM828.498 23.2932V25.1157C828.498 25.3853 828.474 25.6634 828.4 25.9066C828.094 26.9188 827.045 27.7742 825.735 27.7742C824.642 27.7742 823.774 27.1539 823.774 25.8419C823.774 23.8349 825.983 23.2801 828.498 23.2932H828.498ZM873.92 23.2932V25.1157C873.92 25.3853 873.896 25.6634 873.822 25.9066C873.516 26.9188 872.468 27.7742 871.157 27.7742C870.064 27.7742 869.196 27.1539 869.196 25.8419C869.196 23.8349 871.405 23.2801 873.92 23.2932H873.92Z" fill="#2D2D2D"/>
<path d="M919.377 3.85525C918.102 3.85525 917.089 4.56718 917.089 5.43388L917.863 14.2008C917.949 14.729 918.596 15.1364 919.378 15.1364C920.161 15.1354 920.806 14.7283 920.893 14.2008L921.671 5.43388C921.671 4.56726 920.655 3.85532 919.379 3.85532L919.377 3.85525ZM906.76 10.8877C906.098 10.9034 905.346 11.4045 904.868 12.2337C904.228 13.3378 904.342 14.5717 905.09 15.0046L913.069 18.7202C913.567 18.9056 914.244 18.5517 914.636 17.8758C914.636 17.8758 914.636 17.8756 914.636 17.8755C915.03 17.1963 914.999 16.4327 914.585 16.094L907.379 11.0397C907.192 10.9313 906.981 10.8825 906.76 10.8878L906.76 10.8877ZM931.994 10.8877C931.774 10.8824 931.563 10.9312 931.377 11.0396L924.17 16.0939C923.757 16.4326 923.727 17.1962 924.119 17.8754L924.119 17.8757C924.512 18.5515 925.187 18.9055 925.686 18.7201L933.668 15.0047C934.419 14.5718 934.527 13.338 933.892 12.2337C933.411 11.4045 932.658 10.9035 931.996 10.8877L931.994 10.8877ZM913.367 22.4544C913.263 22.453 913.163 22.4689 913.07 22.5042L905.091 26.2153C904.343 26.6501 904.229 27.8845 904.869 28.9898C905.507 30.0918 906.631 30.6157 907.379 30.1835L914.586 25.1332C915.001 24.7903 915.031 24.0269 914.637 23.3484L914.64 23.3499C914.322 22.7973 913.814 22.4604 913.367 22.4543L913.367 22.4544ZM925.391 22.4544C924.944 22.4605 924.437 22.7974 924.118 23.35L924.121 23.3485C923.729 24.027 923.759 24.7904 924.171 25.1333L931.378 30.1837C932.125 30.6158 933.251 30.0919 933.891 28.9899C934.526 27.8846 934.419 26.6502 933.667 26.2155L925.688 22.5043C925.594 22.4691 925.494 22.4531 925.391 22.4545L925.391 22.4544ZM919.376 26.0878C918.595 26.0887 917.949 26.4944 917.864 27.0212L917.09 35.7878C917.09 36.6559 918.103 37.3664 919.378 37.3664C920.655 37.3664 921.671 36.6559 921.671 35.7878L920.895 27.0212C920.807 26.4944 920.162 26.0888 919.379 26.0878H919.376H919.376Z" fill="#2D2D2D"/>
</g>
<path d="M664.01 21.66C664.01 26.6955 660.071 30.4061 655.236 30.4061C650.402 30.4061 646.463 26.6955 646.463 21.66C646.463 16.589 650.402 12.914 655.236 12.914C660.071 12.914 664.01 16.589 664.01 21.66ZM660.169 21.66C660.169 18.5133 657.886 16.3603 655.236 16.3603C652.586 16.3603 650.303 18.5133 650.303 21.66C650.303 24.7752 652.586 26.9597 655.236 26.9597C657.886 26.9597 660.169 24.7712 660.169 21.66Z" fill="#2D2D2D"/>
<path d="M682.937 21.66C682.937 26.6955 678.998 30.4061 674.164 30.4061C669.329 30.4061 665.39 26.6955 665.39 21.66C665.39 16.593 669.329 12.914 674.164 12.914C678.998 12.914 682.937 16.589 682.937 21.66ZM679.096 21.66C679.096 18.5133 676.813 16.3603 674.164 16.3603C671.514 16.3603 669.231 18.5133 669.231 21.66C669.231 24.7752 671.514 26.9597 674.164 26.9597C676.813 26.9597 679.096 24.7712 679.096 21.66Z" fill="#2D2D2D"/>
<path d="M701.076 13.4424V29.1442C701.076 35.6032 697.267 38.2412 692.764 38.2412C688.525 38.2412 685.973 35.4061 685.011 33.0874L688.355 31.6955C688.951 33.119 690.41 34.7988 692.76 34.7988C695.642 34.7988 697.429 33.0204 697.429 29.6726V28.4147H697.294C696.435 29.4755 694.779 30.4021 692.689 30.4021C688.316 30.4021 684.309 26.593 684.309 21.6916C684.309 16.7547 688.316 12.914 692.689 12.914C694.775 12.914 696.431 13.8406 697.294 14.8698H697.429V13.4463H701.076V13.4424ZM697.701 21.6916C697.701 18.6119 695.646 16.3603 693.032 16.3603C690.382 16.3603 688.162 18.6119 688.162 21.6916C688.162 24.7397 690.382 26.9597 693.032 26.9597C695.646 26.9597 697.701 24.7397 697.701 21.6916Z" fill="#2D2D2D"/>
<path d="M707.089 4.23885V29.8697H703.343V4.23885H707.089Z" fill="#2D2D2D"/>
<path d="M721.687 24.5386L724.668 26.5259C723.706 27.9494 721.388 30.4021 717.381 30.4021C712.413 30.4021 708.702 26.5614 708.702 21.6561C708.702 16.455 712.444 12.91 716.951 12.91C721.49 12.91 723.71 16.522 724.436 18.4739L724.834 19.4676L713.142 24.3098C714.037 26.0646 715.429 26.9597 717.381 26.9597C719.337 26.9597 720.693 25.9975 721.687 24.5386ZM712.511 21.3919L720.327 18.1466C719.897 17.0543 718.604 16.2933 717.081 16.2933C715.13 16.2933 712.413 18.0165 712.511 21.3919Z" fill="#2D2D2D"/>
<path d="M632.283 19.3847V15.6742H644.787C644.909 16.3208 644.972 17.0858 644.972 17.9139C644.972 20.6978 644.211 24.1402 641.758 26.5929C639.373 29.0771 636.324 30.4021 632.287 30.4021C624.802 30.4021 618.509 24.3059 618.509 16.8216C618.509 9.33742 624.802 3.24121 632.287 3.24121C636.427 3.24121 639.377 4.86581 641.593 6.98332L638.974 9.60161C637.385 8.11108 635.232 6.95177 632.283 6.95177C626.817 6.95177 622.543 11.3563 622.543 16.8216C622.543 22.2869 626.817 26.6915 632.283 26.6915C635.828 26.6915 637.847 25.268 639.14 23.9746C640.189 22.9257 640.879 21.4273 641.151 19.3808L632.283 19.3847Z" fill="#2D2D2D"/>
<g clip-path="url(#clip4_304_174)">
<path fill-rule="evenodd" clip-rule="evenodd" d="M504.633 30.6123C497.916 35.587 488.181 38.2412 479.799 38.2412C468.046 38.2412 457.465 33.8732 449.461 26.6083C448.832 26.037 449.395 25.2584 450.15 25.7033C458.788 30.7539 469.47 33.7923 480.503 33.7923C487.944 33.7923 496.13 32.2453 503.656 29.035C504.794 28.5496 505.744 29.7832 504.633 30.6123Z" fill="#2D2D2D"/>
<path fill-rule="evenodd" clip-rule="evenodd" d="M507.424 27.402C506.569 26.2999 501.749 26.8813 499.586 27.1392C498.927 27.22 498.826 26.6437 499.42 26.2291C503.259 23.5143 509.558 24.2979 510.292 25.2079C511.027 26.123 510.101 32.4678 506.494 35.4961C505.94 35.9612 505.412 35.7135 505.658 35.0967C506.468 33.0643 508.285 28.5092 507.424 27.402Z" fill="#2D2D2D"/>
<path fill-rule="evenodd" clip-rule="evenodd" d="M499.737 7.06337V4.42434C499.737 4.02495 500.039 3.757 500.401 3.757H512.159C512.536 3.757 512.838 4.03001 512.838 4.42434V6.6842C512.833 7.06337 512.516 7.55882 511.953 8.34244L505.86 17.0836C508.124 17.028 510.514 17.3667 512.567 18.5295C513.029 18.7924 513.155 19.1766 513.19 19.5558V22.3718C513.19 22.756 512.768 23.2059 512.325 22.9734C508.708 21.0674 503.903 20.8601 499.903 22.9936C499.496 23.216 499.068 22.7711 499.068 22.3869V19.7125C499.068 19.2828 499.073 18.5497 499.501 17.8975L506.559 7.72566H500.416C500.039 7.72566 499.737 7.45771 499.737 7.06337Z" fill="#2D2D2D"/>
<path fill-rule="evenodd" clip-rule="evenodd" d="M456.846 23.5294H453.268C452.926 23.5041 452.655 23.2463 452.63 22.9177V4.46974C452.63 4.10069 452.936 3.80746 453.319 3.80746H456.654C457.002 3.82261 457.278 4.09057 457.303 4.42424V6.83577H457.369C458.239 4.50513 459.874 3.41817 462.078 3.41817C464.317 3.41817 465.716 4.50513 466.722 6.83577C467.587 4.50513 469.554 3.41817 471.662 3.41817C473.162 3.41817 474.802 4.04001 475.803 5.43536C476.935 6.98743 476.704 9.24223 476.704 11.219L476.699 22.862C476.699 23.2311 476.392 23.5294 476.009 23.5294H472.437C472.08 23.5041 471.793 23.2159 471.793 22.862V13.0845C471.793 12.3059 471.864 10.3646 471.693 9.62646C471.426 8.38784 470.626 8.039 469.59 8.039C468.724 8.039 467.819 8.62039 467.451 9.55063C467.084 10.4809 467.119 12.038 467.119 13.0845V22.862C467.119 23.2311 466.812 23.5294 466.43 23.5294H462.858C462.496 23.5041 462.214 23.2159 462.214 22.862L462.209 13.0845C462.209 11.0269 462.546 7.99856 460.005 7.99856C457.434 7.99856 457.535 10.951 457.535 13.0845V22.862C457.535 23.2311 457.228 23.5294 456.846 23.5294" fill="#2D2D2D"/>
<path fill-rule="evenodd" clip-rule="evenodd" d="M522.961 3.41817C528.269 3.41817 531.142 7.99856 531.142 13.8226C531.142 19.4495 527.967 23.9136 522.961 23.9136C517.749 23.9136 514.911 19.3332 514.911 13.6255C514.911 7.88228 517.784 3.41817 522.961 3.41817ZM522.991 7.18461C520.355 7.18461 520.189 10.7943 520.189 13.0441C520.189 15.2989 520.154 20.1118 522.961 20.1118C525.733 20.1118 525.864 16.2291 525.864 13.8631C525.864 12.3059 525.799 10.4455 525.331 8.96923C524.928 7.68511 524.128 7.18461 522.991 7.18461Z" fill="#2D2D2D"/>
<path fill-rule="evenodd" clip-rule="evenodd" d="M538.024 23.5294H534.462C534.105 23.5041 533.818 23.2159 533.818 22.862L533.813 4.40907C533.843 4.07035 534.14 3.80746 534.502 3.80746H537.818C538.13 3.82261 538.386 4.03496 538.457 4.32313V7.14416H538.522C539.523 4.62141 540.927 3.41817 543.397 3.41817C545.002 3.41817 546.567 3.99957 547.573 5.59209C548.509 7.06832 548.509 9.55063 548.509 11.3353V22.948C548.469 23.2715 548.172 23.5294 547.82 23.5294H544.232C543.905 23.5041 543.634 23.2614 543.599 22.948V12.9278C543.599 10.9106 543.83 7.95811 541.36 7.95811C540.489 7.95811 539.689 8.54456 539.292 9.43435C538.789 10.5618 538.723 11.6841 538.723 12.9278V22.862C538.718 23.2311 538.406 23.5294 538.024 23.5294" fill="#2D2D2D"/>
<path fill-rule="evenodd" clip-rule="evenodd" d="M490.364 14.7175C490.364 16.1179 490.399 17.2857 489.695 18.5294C489.126 19.5405 488.221 20.1624 487.219 20.1624C485.846 20.1624 485.041 19.1108 485.041 17.5587C485.041 14.495 487.773 13.9389 490.364 13.9389V14.7175ZM493.971 23.4788C493.735 23.6912 493.393 23.7063 493.126 23.5648C491.939 22.5739 491.722 22.1138 491.073 21.1684C489.111 23.1806 487.718 23.7822 485.177 23.7822C482.163 23.7822 479.824 21.9167 479.824 18.1806C479.824 15.2635 481.393 13.2766 483.637 12.3059C485.579 11.4465 488.291 11.2948 490.364 11.0572V10.5921C490.364 9.73769 490.429 8.72657 489.926 7.98845C489.494 7.32617 488.658 7.05316 487.919 7.05316C486.555 7.05316 485.343 7.75589 485.046 9.21191C484.986 9.53547 484.749 9.85397 484.422 9.86914L480.956 9.49502C480.664 9.4293 480.337 9.19168 480.422 8.74174C481.217 4.51525 485.021 3.24123 488.422 3.24123C490.163 3.24123 492.437 3.70635 493.81 5.03092C495.551 6.66388 495.385 8.84285 495.385 11.2139V16.8155C495.385 18.4991 496.079 19.2372 496.733 20.1472C496.96 20.4707 497.01 20.86 496.718 21.1027C495.989 21.7144 494.691 22.8519 493.976 23.4889L493.971 23.4788" fill="#2D2D2D"/>
<path fill-rule="evenodd" clip-rule="evenodd" d="M443.468 14.7177C443.468 16.1181 443.503 17.2859 442.799 18.5296C442.23 19.5407 441.33 20.1625 440.324 20.1625C438.95 20.1625 438.15 19.111 438.15 17.5589C438.15 14.4952 440.882 13.9391 443.468 13.9391V14.7177ZM447.075 23.479C446.839 23.6914 446.497 23.7065 446.23 23.565C445.043 22.5741 444.832 22.114 444.177 21.1686C442.215 23.1807 440.827 23.7824 438.281 23.7824C435.272 23.7824 432.928 21.9168 432.928 18.1807C432.928 15.2637 434.502 13.2768 436.741 12.3061C438.683 11.4467 441.395 11.295 443.468 11.0574V10.5923C443.468 9.73788 443.533 8.72676 443.035 7.98864C442.598 7.32636 441.762 7.05335 441.028 7.05335C439.664 7.05335 438.447 7.75608 438.15 9.2121C438.09 9.53566 437.853 9.85416 437.531 9.86933L434.06 9.49521C433.768 9.42949 433.446 9.19187 433.526 8.74193C434.326 4.51544 438.125 3.24142 441.526 3.24142C443.267 3.24142 445.541 3.70654 446.914 5.03111C448.655 6.66407 448.489 8.84304 448.489 11.2141V16.8157C448.489 18.4993 449.183 19.2374 449.838 20.1474C450.069 20.4709 450.119 20.8602 449.827 21.1029C449.098 21.7146 447.8 22.8521 447.085 23.4891L447.075 23.479" fill="#2D2D2D"/>
</g>
<g clip-path="url(#clip5_304_174)">
<path d="M347.622 20.2447C347.523 20.1398 347.405 20.0537 347.276 19.9905C346.347 19.4355 345.436 18.8529 344.484 18.3463C343.822 18.004 343.134 17.715 342.426 17.4819C341.562 17.1845 341.062 16.5223 341.178 15.6181C341.204 15.4852 341.196 15.3478 341.154 15.2189C341.112 15.0901 341.038 14.974 340.939 14.8816C340.616 14.56 340.635 14.4978 341.1 14.2315C341.013 14.0464 340.941 13.8544 340.886 13.6575C340.861 13.5121 340.876 13.3626 340.931 13.2253C341.076 12.8553 341.266 12.5044 341.404 12.1326C341.51 11.8456 341.404 11.6728 341.059 11.6676C340.09 11.6362 339.141 11.3893 338.28 10.9449C337.817 10.7459 337.366 10.5226 336.927 10.2758C336.2 9.81591 335.476 9.88333 334.741 10.1876C334.591 10.2499 334.492 10.4349 334.369 10.5645L334.435 10.6873L333.225 10.6112C332.953 10.5939 332.647 10.4885 332.418 10.5784C332.006 10.7374 331.629 10.6752 331.235 10.6008L329.527 10.2741C329.667 10.6907 329.437 10.6648 329.224 10.6198C328.878 10.5611 328.519 10.4712 328.163 10.4228C327.907 10.3864 327.644 10.3934 327.279 10.3778L327.649 10.8654C326.979 11.1394 326.243 11.2069 325.534 11.0594C324.826 10.9118 324.177 10.5559 323.673 10.0372C322.635 8.91342 322.35 7.50781 322.226 6.06072C322.068 4.24364 322.521 2.54931 323.349 0.941422C323.436 0.746887 323.51 0.547087 323.571 0.34322L323.432 0.242943C323.214 0.361292 323.005 0.497168 322.808 0.649237C321.865 1.47197 321.238 2.59735 321.034 3.83216C320.92 4.52372 320.948 5.23776 320.882 5.93797C320.87 6.07628 320.723 6.20422 320.638 6.33562C320.531 6.21978 320.348 6.11086 320.334 5.98983C320.277 5.49191 320.268 4.98707 320.253 4.48568C320.243 4.19177 320.253 3.89958 320.253 3.49848C320.046 3.63336 319.871 3.81134 319.739 4.02022C319.608 4.22911 319.523 4.46396 319.49 4.70871C319.202 6.15408 319.413 7.513 320.263 8.74744C320.367 8.92383 320.46 9.10692 320.54 9.2955L320.367 9.39924C320.128 9.14471 319.908 8.8725 319.71 8.58492C319.452 8.15443 319.266 7.6807 319.018 7.23983C318.912 7.08757 318.788 6.94831 318.648 6.82489C318.581 7.0168 318.508 7.20698 318.45 7.40062C318.442 7.45846 318.446 7.51737 318.462 7.57351C318.623 8.77339 319.178 9.88571 320.04 10.7357C321.055 11.7506 322.269 12.4525 323.572 13.023C323.712 13.0853 323.93 13.2253 323.929 13.3256C323.947 13.9417 323.902 14.5581 323.795 15.1651C323.548 16.2613 322.461 16.6209 321.537 15.9691C320.967 15.5645 320.773 15.5542 320.279 16.0815C319.784 16.6077 319.151 16.9849 318.453 17.1707C317.817 17.3436 317.186 17.5545 316.551 17.7654C316.224 17.8707 315.904 18.0014 315.597 18.1562C315.478 18.2184 315.412 18.3861 315.322 18.5019L315.645 18.7284L315.127 19.0863L315.486 19.375C315.449 19.4249 315.418 19.4789 315.393 19.5358C315.355 19.6568 315.327 19.7813 315.294 19.9041C315.429 19.9283 315.578 20.0009 315.694 19.9663C315.967 19.8752 316.232 19.7625 316.487 19.6292C317.544 19.1105 318.614 18.5918 319.648 18.0334C320.682 17.475 321.626 17.5683 322.63 18.132C323.196 18.4483 323.858 18.6091 324.49 18.7855C325.025 18.9342 325.516 18.7561 325.943 18.412C326.323 18.1043 326.697 17.7879 327.079 17.4802C327.37 17.2288 327.719 17.0549 328.095 16.9745C328.471 16.8941 328.861 16.9099 329.229 17.0203C329.631 17.1489 330.024 17.3019 330.407 17.4784C331.164 17.7948 331.899 18.17 332.673 18.4362C333.862 18.8691 335.159 18.9067 336.372 18.5434C337.347 18.2374 338.147 18.3169 338.792 19.1607C339.105 19.5652 339.484 19.6793 340.013 19.522C341.2 19.1624 342.373 19.19 343.481 19.8349C343.979 20.1254 344.477 20.4176 344.992 20.6717C345.473 20.9027 345.966 21.1065 346.47 21.282C346.636 21.3207 346.809 21.3084 346.968 21.2467C347.127 21.185 347.263 21.0768 347.359 20.9362L347.895 20.727C347.817 20.559 347.726 20.3976 347.622 20.2447Z" fill="#2D2D2D"/>
<path d="M359.463 26.0555C359.159 25.8408 358.832 25.6632 358.486 25.5265C358 25.3536 357.485 25.2723 356.99 25.1254C355.778 24.7679 354.488 24.7679 353.275 25.1254C351.183 25.7391 349.471 26.9425 348.529 29.0171C348.419 29.2609 348.431 29.5687 348.296 29.7934C347.777 30.6752 347.865 31.652 347.777 33.0161C347.851 33.4691 347.991 34.3128 348.133 35.1565C348.368 36.5483 349.212 37.5614 350.293 38.3498C351.401 39.1572 352.554 39.8591 354.025 39.9767C355.082 40.0631 356.091 40.2481 357.175 40.0303C358.351 39.7951 359.281 39.2263 360.127 38.4535C360.443 38.1648 360.676 37.7861 360.983 37.4836C362.118 36.3633 362.642 34.9611 362.853 33.4241C363.064 31.8871 362.781 30.4711 362.203 29.0552C361.655 27.6893 360.628 26.8145 359.463 26.0555ZM357.976 35.5645C356.991 36.318 355.749 36.654 354.518 36.4998C352.928 36.3045 352.118 35.3778 351.579 33.929C351.109 32.672 351.352 31.5655 351.79 30.4227C351.875 30.2084 352.006 30.0158 352.175 29.8591C352.855 29.2315 353.502 28.6644 354.551 28.5469C355.393 28.4518 356.162 28.6091 356.913 28.7751C358.023 29.0206 358.631 29.9507 358.975 30.9743C359.183 31.5898 359.195 32.2709 359.292 32.9003C359.188 33.9895 358.773 34.9801 357.976 35.5714V35.5645Z" fill="#2D2D2D"/>
<path d="M334.478 6.27337C334.395 6.37537 334.369 6.66929 334.439 6.72288C334.739 6.93453 335.053 7.12738 335.377 7.30034C335.472 7.44729 335.587 7.65476 335.723 7.66514C336.211 7.7049 336.703 7.6807 337.231 7.6807L336.41 8.66099L336.74 8.80449L336.204 9.22461C336.333 9.30068 336.399 9.34909 336.472 9.38194C337.061 9.64819 337.661 9.89197 338.239 10.1807C339.146 10.6222 340.119 10.9141 341.119 11.0452C341.52 11.1039 341.79 10.9967 341.899 10.5732C341.959 10.3508 342.043 10.1352 342.148 9.93001C342.383 9.42336 342.716 8.96841 343.128 8.5915C343.541 8.2146 344.024 7.92324 344.549 7.73429C345.772 7.28651 346.349 6.4428 346.223 5.20144C346.185 4.82281 345.993 4.64646 345.635 4.6724C345.233 4.6944 344.832 4.7435 344.437 4.81936C343.761 4.95767 343.209 4.83837 342.727 4.30068C342.186 3.68692 341.517 3.28063 340.635 3.41029C340.102 3.47805 339.563 3.36021 339.107 3.07662C338.783 2.89335 338.436 2.68242 338.083 2.64439C336.942 2.48678 335.784 2.7713 334.847 3.43969C334.707 3.5648 334.58 3.70191 334.465 3.84944C334.726 3.93243 334.9 3.98256 335.068 4.04653C335.154 4.07938 335.301 4.14335 335.3 4.18658C335.284 4.56175 335.585 4.53236 335.801 4.59287C335.974 4.64301 336.147 4.6724 336.311 4.71216L336.328 4.83146C335.932 5.11154 335.531 5.38298 335.144 5.67517C334.9 5.84873 334.677 6.04942 334.478 6.27337ZM345.853 5.18761C345.853 5.2827 345.912 5.48153 345.839 5.5576C345.703 5.70926 345.521 5.81144 345.32 5.84806C345.172 5.87525 345.019 5.84832 344.889 5.77217C344.759 5.69602 344.66 5.57571 344.611 5.43312L345.853 5.18761Z" fill="#2D2D2D"/>
<path d="M318.761 21.6088C318.961 21.5808 319.157 21.5292 319.345 21.4549C319.902 21.1541 320.452 20.8411 320.986 20.504C321.712 20.0458 322.478 19.7433 323.348 19.8124C323.764 19.8552 324.178 19.9204 324.587 20.0078C325.751 20.2395 326.738 19.9767 327.561 19.0777C328.014 18.6176 328.495 18.1863 329.001 17.7862C329.236 17.5873 329.184 17.4075 328.948 17.3436C328.681 17.2546 328.393 17.245 328.121 17.3159C327.801 17.4405 327.511 17.6341 327.274 17.883C326.138 19.0465 324.854 19.5842 323.215 19.0673C322.678 18.9009 322.124 18.7959 321.563 18.7544C321.195 18.7114 320.821 18.7712 320.485 18.9272C319.658 19.375 318.842 19.8747 318.666 20.9501L318.948 21.059L318.704 21.4774L318.761 21.6088Z" fill="#2D2D2D"/>
<path d="M343.147 15.4504C342.746 15.4245 342.348 15.3484 341.949 15.3173C341.674 15.2965 341.558 15.4469 341.591 15.7218C341.616 16.0345 341.749 16.3285 341.968 16.5526C342.188 16.7767 342.479 16.9165 342.791 16.9476C343.204 16.9943 343.623 16.9857 344.038 17.0237C345.051 17.1153 346.066 17.207 347.077 17.328C347.392 17.366 347.689 17.4784 347.616 16.9909L348.279 17.105L348.126 16.6451L348.799 16.5811C348.757 16.4007 348.658 16.2384 348.518 16.1175C348.377 15.9966 348.202 15.9235 348.017 15.9086C347.027 15.7547 346.029 15.6423 345.032 15.5472C344.406 15.4867 343.778 15.4936 343.147 15.4504Z" fill="#2D2D2D"/>
<path d="M320.633 34.3577C321.75 34.2384 322.869 34.1399 323.987 34.0431C325.853 33.8806 327.718 33.7319 329.582 33.5659C330.127 33.5175 330.253 33.393 330.298 32.838C330.412 31.5583 330.259 30.2688 329.847 29.0517C329.314 27.5147 328.246 26.3218 326.863 25.4902C325.44 24.6344 323.853 24.3802 322.195 24.6084C320.945 24.7659 319.772 25.2988 318.832 26.1368C318.304 26.607 317.874 27.188 317.424 27.7378C316.633 28.7059 316.297 29.8678 316.142 31.0745C315.97 32.3754 316.053 33.6971 316.385 34.9663C316.828 36.6762 317.737 38.0784 319.169 39.0379C319.419 39.2054 319.679 39.3561 319.949 39.4891C320.094 39.5618 320.241 39.6275 320.39 39.688C321.45 40.1156 322.593 40.2988 323.733 40.2239C323.83 40.2239 323.929 40.2343 324.024 40.2239C324.056 40.2222 324.088 40.2187 324.121 40.2136C325.082 40.0614 326.09 40.0407 326.994 39.7139C328.5 39.1779 329.433 37.9452 330.196 36.5846C330.331 36.3477 330.298 36.1817 330.066 36.0469C329.618 35.7875 329.184 35.4988 328.719 35.2741C327.701 34.7813 327.682 34.7831 326.911 35.6198C326.402 36.1594 325.717 36.4986 324.98 36.5759C324.519 36.6393 324.061 36.69 323.607 36.7281C322.224 36.8439 321.083 36.4065 320.244 35.2758C319.845 34.7277 319.964 34.4217 320.633 34.3577ZM319.784 30.5628C320.049 29.4632 320.822 28.8685 321.814 28.4622C322.769 28.0658 323.839 28.0461 324.809 28.4068C325.879 28.7786 326.624 29.477 326.854 30.7357C326.143 30.7789 325.488 30.8239 324.831 30.8602C323.296 30.9431 321.76 31.0233 320.224 31.1005C319.784 31.1247 319.681 30.9967 319.784 30.5628Z" fill="#2D2D2D"/>
<path d="M314.146 34.5082C313.91 33.7561 313.538 33.125 312.883 32.6565C312.71 32.5337 312.507 32.3885 312.749 32.1378C313.132 31.7494 313.431 31.2863 313.628 30.7774C313.824 30.2685 313.913 29.7246 313.891 29.1797C313.891 28.3947 313.744 27.7308 313.225 27.1568C312.015 25.8169 310.611 24.8937 308.707 24.9335C307.67 24.9559 306.615 24.8781 305.569 24.8574C304.867 24.8436 304.164 24.8574 303.462 24.8453C303.177 24.8453 303.069 24.9421 303.066 25.2533C303.052 27.1361 303.011 29.0206 302.979 30.9051C302.953 32.4853 302.933 34.0638 302.902 35.6441C302.902 35.9311 302.826 36.2163 302.836 36.5085C302.864 37.3107 302.917 38.1112 302.959 38.9134H302.914C302.914 39.1728 302.931 39.4321 302.914 39.6914C302.883 40.0459 303 40.1963 303.374 40.1461C303.643 40.1091 303.915 40.1027 304.186 40.1271C306.126 40.3 308.064 40.1928 309.995 40.032C312.105 39.8591 313.508 38.7388 314.183 36.7212C314.41 35.999 314.398 35.2225 314.146 34.5082ZM306.529 28.9169C306.529 28.5711 306.665 28.3982 307.06 28.4518C307.392 28.478 307.726 28.4809 308.059 28.4604C308.438 28.4967 308.953 28.5348 309.465 28.6005C309.795 28.642 310.064 28.8443 310.07 29.1745C310.075 29.5969 310.016 30.0176 309.897 30.4227C309.848 30.5148 309.778 30.5941 309.692 30.6542C309.607 30.7142 309.509 30.7534 309.406 30.7685C308.566 30.8619 307.718 30.9034 306.873 30.9604C306.827 30.9698 306.78 30.9681 306.735 30.9553C306.69 30.9425 306.649 30.9191 306.615 30.887C306.581 30.855 306.555 30.8152 306.54 30.7711C306.525 30.727 306.52 30.6799 306.527 30.6337C306.527 30.0649 306.524 29.4909 306.529 28.9169ZM309.283 36.595C308.792 36.6814 308.285 36.6866 307.786 36.7281V36.6555C307.454 36.6555 307.124 36.6555 306.793 36.6555C306.567 36.6555 306.496 36.5535 306.505 36.3373C306.527 35.7478 306.551 35.1582 306.544 34.5704C306.535 34.5172 306.538 34.4626 306.552 34.4105C306.567 34.3585 306.592 34.3102 306.628 34.2693C306.663 34.2283 306.707 34.1956 306.756 34.1736C306.805 34.1515 306.859 34.1406 306.913 34.1416C307.8 34.0638 308.688 33.9791 309.577 33.9411C309.98 33.9238 310.362 34.477 310.419 35.0545C310.5 35.8999 310.118 36.4497 309.283 36.595Z" fill="#2D2D2D"/>
<path d="M346.047 35.6734C345.393 35.3553 344.696 35.1202 344.013 34.8626C343.668 34.7277 343.401 34.8626 343.139 35.134C342.759 35.5431 342.336 35.9089 341.876 36.225C341.066 36.754 340.13 36.7782 339.209 36.652C338.517 36.5586 337.788 36.5016 337.234 36.0071C335.867 34.7848 335.53 33.2409 335.931 31.512C336.014 31.1475 336.151 30.7978 336.339 30.4746C336.56 30.0977 336.8 29.6741 337.146 29.4373C338.638 28.4189 340.796 28.208 342.347 29.2938C342.518 29.4252 342.704 29.5361 342.902 29.624C342.97 29.6541 343.044 29.6697 343.119 29.6697C343.193 29.6697 343.267 29.6541 343.336 29.624C344.05 29.0915 344.753 28.5434 345.436 27.9712C345.483 27.9041 345.511 27.8264 345.519 27.7453C345.527 27.6642 345.514 27.5825 345.481 27.5078C345.108 27.0756 344.762 26.5483 344.28 26.2976C342.834 25.5403 341.365 24.7658 339.657 24.9438C338.002 24.9214 336.584 25.5455 335.232 26.3857C333.95 27.1665 333.028 28.4234 332.67 29.8816C332.491 30.5187 332.357 31.1675 332.267 31.8232C332.139 32.8605 332.113 33.8892 332.468 34.8954C332.748 35.712 333.145 36.484 333.645 37.188C334.127 37.8588 334.627 38.4881 335.322 38.948C337.162 40.1582 339.167 40.4504 341.315 40.096C343.507 39.7329 345.192 38.6523 346.328 36.735C346.655 36.1921 346.631 35.9587 346.047 35.6734Z" fill="#2D2D2D"/>
</g>
<g clip-path="url(#clip6_304_174)">
<path d="M232.218 30.5173C231.688 31.7402 231.062 32.8657 230.336 33.9006C229.347 35.3113 228.536 36.2879 227.912 36.8301C226.944 37.7202 225.907 38.1761 224.797 38.202C224 38.202 223.038 37.9751 221.919 37.515C220.796 37.057 219.764 36.8301 218.821 36.8301C217.832 36.8301 216.77 37.057 215.635 37.515C214.498 37.9751 213.583 38.215 212.882 38.2387C211.818 38.2841 210.756 37.8153 209.697 36.8301C209.02 36.2403 208.175 35.2292 207.161 33.7969C206.074 32.2673 205.18 30.4936 204.48 28.4714C203.73 26.2872 203.354 24.1722 203.354 22.1245C203.354 19.7789 203.861 17.7559 204.877 16.0606C205.674 14.6989 206.736 13.6248 208.064 12.8362C209.393 12.0476 210.828 11.6458 212.374 11.6201C213.22 11.6201 214.329 11.8817 215.707 12.3959C217.082 12.9118 217.964 13.1734 218.351 13.1734C218.64 13.1734 219.621 12.8675 221.283 12.2576C222.854 11.692 224.181 11.4578 225.268 11.5501C228.212 11.7877 230.425 12.9485 231.896 15.0398C229.262 16.6355 227.96 18.8705 227.985 21.7376C228.009 23.9708 228.819 25.8292 230.412 27.3048C231.133 27.9896 231.939 28.519 232.836 28.8949C232.641 29.4587 232.436 29.9988 232.218 30.5173ZM225.464 3.94194C225.464 5.69233 224.825 7.32668 223.55 8.83941C222.012 10.6377 220.151 11.6769 218.134 11.5129C218.108 11.3029 218.093 11.0819 218.093 10.8497C218.093 9.16931 218.825 7.37097 220.124 5.90058C220.772 5.1561 221.597 4.53707 222.597 4.04326C223.596 3.55682 224.54 3.2878 225.428 3.24174C225.453 3.47574 225.464 3.70975 225.464 3.94191V3.94194Z" fill="#2D2D2D"/>
</g>
<path fill-rule="evenodd" clip-rule="evenodd" d="M117.682 13.5682C117.682 12.9423 117.178 12.4356 116.552 12.4356H114.877C114.25 12.4356 113.746 12.9445 113.746 13.5703V31.0883C113.746 31.7148 114.251 32.2216 114.877 32.2216H116.553C117.178 32.2216 117.682 31.712 117.682 31.0869V13.5682ZM119.818 14.0336V14.8669C119.818 15.2104 120.099 15.4891 120.444 15.4891H131.999C132.527 15.4891 132.954 15.0636 132.954 14.5368V13.127C132.954 12.5995 132.522 12.1226 131.999 12.1747C131.999 12.1747 120.827 13.2709 120.469 13.3109C120.289 13.3267 120.122 13.41 120.001 13.5441C119.88 13.6782 119.815 13.8531 119.818 14.0336ZM110.462 32.2223C107.588 32.2223 105.778 30.0419 105.778 27.6156L105.776 20.6062H104.954C104.85 20.6063 104.747 20.5858 104.651 20.5461C104.554 20.5063 104.467 20.448 104.393 20.3745C104.32 20.301 104.261 20.2137 104.221 20.1175C104.181 20.0214 104.161 19.9183 104.161 19.8143V18.641C104.161 18.2027 104.517 17.8498 104.957 17.8498L105.776 17.8513L105.775 13.5418C105.775 12.9317 106.266 12.437 106.878 12.437H108.512C109.121 12.437 109.615 12.9352 109.615 13.5454V17.852L112.161 17.8513C112.599 17.8513 112.957 18.2034 112.957 18.6424V19.8157C112.957 20.2548 112.601 20.6076 112.164 20.6076L109.615 20.6069L109.618 27.0903C109.618 28.3626 110.389 29.2315 111.766 29.2315H111.998C112.474 29.2315 112.862 29.6143 112.862 30.0904V31.3627C112.862 31.8403 112.476 32.223 112 32.223H110.462V32.2223ZM83.5419 17.3459C78.8945 17.3459 76.2886 20.9825 76.2886 24.8151C76.2886 28.8994 79.0798 32.4939 83.5725 32.4939C86.6475 32.4939 89.6782 30.8737 90.2506 28.2144C90.3283 27.8551 90.0866 27.3847 89.5813 27.3818L87.3831 27.3833C86.9846 27.3833 86.6589 27.5743 86.4629 27.8623C85.8335 28.7839 84.9133 29.2736 83.5518 29.2736C81.6266 29.2736 80.293 27.7575 80.1925 26.076H89.535C90.3953 26.076 90.7809 25.6084 90.7809 24.8144C90.7809 21.0787 88.5677 17.3459 83.5419 17.3459ZM83.5419 20.3453C85.2568 20.3453 86.738 21.5656 86.8884 23.2171H80.2203C80.3707 21.5656 81.8269 20.3453 83.5419 20.3453ZM126.117 17.3459C121.469 17.3459 118.862 20.9825 118.862 24.8151C118.862 28.8994 121.654 32.4939 126.146 32.4939C129.221 32.4939 132.252 30.8737 132.824 28.2144C132.902 27.8551 132.661 27.3847 132.155 27.3818L129.958 27.3833C129.558 27.3833 129.233 27.5743 129.037 27.8623C128.407 28.7839 127.487 29.2736 126.126 29.2736C124.2 29.2736 122.867 27.7575 122.766 26.076H132.109C132.969 26.076 133.355 25.6084 133.355 24.8144C133.355 21.0787 131.141 17.3459 126.117 17.3459ZM126.117 20.3453C127.831 20.3453 129.313 21.5656 129.462 23.2171H122.794C122.944 21.5656 124.4 20.3453 126.117 20.3453Z" fill="#2D2D2D"/>
<path fill-rule="evenodd" clip-rule="evenodd" d="M102.634 12.6315H72.3696C71.6818 12.6315 71.1266 13.1903 71.1266 13.8782L71.2299 25.7639C71.2299 25.7639 64.7093 13.9837 64.3693 13.3835C64.0493 12.8183 63.3629 12.2972 62.412 12.2972H59.9237C59.2352 12.2972 58.6785 12.8561 58.6785 13.5439L58.6799 30.9751C58.6799 31.6629 59.2359 32.221 59.9244 32.221H61.5203C61.8509 32.2203 62.1677 32.0883 62.401 31.8541C62.6344 31.62 62.7652 31.3028 62.7649 30.9722L62.6644 18.7529C62.6644 18.7529 69.2484 30.6493 69.5299 31.1183C69.9098 31.752 70.5535 32.221 71.4844 32.221H73.7703C74.4595 32.221 75.0148 31.6629 75.0148 30.9751L75.0134 15.586H102.635C102.747 15.5863 102.857 15.5646 102.96 15.5221C103.064 15.4796 103.157 15.4171 103.236 15.3383C103.315 15.2596 103.378 15.1659 103.421 15.0629C103.464 14.9598 103.486 14.8494 103.486 14.7378V13.4797C103.485 13.2543 103.395 13.0384 103.235 12.8793C103.076 12.7203 102.859 12.6311 102.634 12.6315Z" fill="#2D2D2D"/>
<path fill-rule="evenodd" clip-rule="evenodd" d="M97.7347 20.1999C99.0505 20.1999 100.035 20.6775 100.39 21.5022C100.56 21.8992 100.89 21.9755 101.342 21.9755H103.152C103.453 21.9755 103.793 21.7182 103.793 21.3269C103.793 19.2227 101.286 17.3445 97.7333 17.3445C94.0582 17.3445 91.6454 19.0958 91.6454 21.8835C91.6454 24.0176 93.3297 25.2871 95.4025 25.8288C96.3477 26.0769 97.9614 26.4746 98.7462 26.6806C99.593 26.903 100.35 27.161 100.35 27.8873C100.35 29.0314 99.1418 29.4213 97.826 29.4213C96.5772 29.4213 95.3341 28.8631 94.9777 27.9736C94.7703 27.4568 94.4096 27.382 93.8615 27.382H92.0211C91.6996 27.382 91.3304 27.6578 91.3304 28.0769V28.3136C91.3304 30.35 94.0618 32.482 97.8288 32.482C100.5 32.482 104.223 31.3721 104.223 27.789C104.223 25.7133 102.835 24.2764 100.576 23.7033C99.692 23.4795 97.5687 22.9392 97.1068 22.8194C96.2828 22.6063 95.5158 22.3376 95.5158 21.6319C95.5158 20.5635 96.5031 20.1999 97.7347 20.1999ZM30.7416 8.60434C30.9025 8.60434 31.0568 8.54043 31.1705 8.42667C31.2843 8.31292 31.3482 8.15863 31.3482 7.99776C31.3482 7.83688 31.2843 7.6826 31.1705 7.56884C31.0568 7.45508 30.9025 7.39118 30.7416 7.39118C30.5808 7.39118 30.4265 7.45508 30.3127 7.56884C30.199 7.6826 30.1351 7.83688 30.1351 7.99776C30.1351 8.15863 30.199 8.31292 30.3127 8.42667C30.4265 8.54043 30.5808 8.60434 30.7416 8.60434ZM22.5959 7.53017C22.7313 7.53017 22.8611 7.4764 22.9568 7.38069C23.0525 7.28498 23.1063 7.15517 23.1063 7.01981C23.1063 6.88446 23.0525 6.75465 22.9568 6.65894C22.8611 6.56323 22.7313 6.50946 22.5959 6.50946C22.4606 6.50946 22.3308 6.56323 22.2351 6.65894C22.1394 6.75465 22.0856 6.88446 22.0856 7.01981C22.0856 7.15517 22.1394 7.28498 22.2351 7.38069C22.3308 7.4764 22.4606 7.53017 22.5959 7.53017ZM16.4895 20.0096L16.2408 19.743C16.9336 19.0994 17.667 18.073 17.7861 17.4707C17.8966 16.9104 18.702 16.9995 18.5488 17.609C18.3542 18.388 17.4005 19.3289 16.4895 20.0096ZM11.3211 7.74258C10.046 8.29427 9.85921 9.60152 10.7538 10.3863C11.8322 11.3315 13.6106 10.5082 13.4395 9.06123C14.8858 9.13536 15.8188 7.64136 15.5886 6.59214C16.2322 6.04116 16.2964 4.86364 15.5244 4.40104C14.6969 3.90565 13.9178 4.09525 13.4217 5.0511C12.0966 4.95487 10.8272 5.99696 11.3211 7.74258L10.7074 7.47457C9.89841 5.78242 11.3154 4.05391 13.0532 4.45236C13.1791 4.17975 13.3624 3.93754 13.5905 3.74229C13.8186 3.54704 14.0862 3.40336 14.375 3.32107C14.6638 3.23877 14.967 3.2198 15.2637 3.26546C15.5605 3.31112 15.8439 3.42032 16.0946 3.58561C17.2101 4.26133 17.4461 6.00481 16.26 6.85017C16.8195 8.47746 15.704 9.80681 14.0069 9.65498C13.808 11.7477 11.8336 12.0179 10.5584 11.0242C9.83854 10.4633 9.54416 9.68563 9.40517 9.09901C9.25904 8.47817 9.25904 7.9222 8.64605 7.28283C8.18488 6.80028 7.35876 6.81667 7.35876 6.81667C7.35876 5.2963 5.93676 3.90494 4.1712 4.57852C3.54537 4.03966 2.772 3.9862 2.21817 4.65265C1.89599 5.03969 1.71851 6.05684 2.71141 6.523C2.66009 7.90866 3.71644 8.79323 5.26104 8.67063C5.32163 9.40693 6.13777 10.0912 6.86124 10.1889L6.85483 10.5588C6.08288 10.4847 5.66519 10.7541 5.15056 11.392C3.3351 11.3065 2.06349 12.1141 2.11624 13.4164C0.840357 13.6587 0.601575 14.9945 1.32505 15.7058C2.04853 16.4172 3.10915 16.1385 3.47053 15.2888C4.75782 15.534 5.89471 14.6117 5.94674 13.5475C7.14921 13.5475 7.67524 13.0721 7.87197 11.9665L8.32601 12.0036C8.46001 13.194 7.90903 14.3237 6.4742 14.189C6.43713 15.6103 5.0579 16.4051 3.77132 15.914C3.17045 17.0423 1.79406 17.4935 0.638639 16.3922C-0.47758 15.3288 -0.0698674 13.5076 1.3892 13.0664C1.4227 11.6729 2.45196 10.3492 4.45132 10.8596C4.45132 10.8596 4.70863 10.2373 5.33446 10.2003C4.91748 10.0292 4.60172 9.79897 4.51547 9.36987C3.00722 9.69134 1.72635 8.30283 2.0692 6.90506C0.708492 6.18871 0.686396 4.84439 1.3614 4.04536C2.06492 3.21354 3.23674 3.02964 4.28524 3.92632C6.06078 2.94268 8.06798 4.14728 7.94538 6.17017C9.18705 6.08749 9.94118 7.17306 9.8029 8.30354C10.0075 7.8053 10.247 7.57436 10.706 7.47457L11.3211 7.74258Z" fill="#2D2D2D"/>
<path fill-rule="evenodd" clip-rule="evenodd" d="M14.3718 5.31487L14.6719 5.52941C14.0896 6.75825 13.0589 8.06336 12.1764 8.78113L11.8393 8.52738C12.4651 7.50952 13.808 5.8295 14.3718 5.31487ZM5.68441 12.0642L5.88684 12.3643C5.15124 13.1184 3.78983 14.1242 3.06706 14.4734L2.7848 14.1669C3.48404 13.4128 4.8198 12.4256 5.68441 12.0642ZM7.44356 8.41263L7.08859 8.8517C6.12562 8.22017 4.22534 6.52232 3.79695 5.91004L4.09632 5.60425C5.01653 6.07042 6.81203 7.67133 7.44356 8.41263ZM5.65732 24.5244C5.76709 25.0754 5.67514 25.6855 6.17195 26.2814C6.3473 26.4903 7.31169 27.7597 8.01094 28.4155C7.06079 28.7897 5.16051 29.5624 3.79268 29.7341C3.51897 29.7691 3.21104 29.9608 2.95302 30.1083C2.78195 30.4006 2.60518 30.9231 2.53105 31.5132C2.4783 31.9352 2.48543 32.4042 2.48543 32.8832C2.48543 33.3052 2.70853 34.6317 3.1804 35.5227C3.65297 36.4136 4.1063 36.8121 4.66441 37.0723C4.77489 37.0238 5.01795 36.9874 5.39715 36.9789C6.42998 36.9554 7.23828 37.5263 7.59467 38.016C7.73081 38.2042 8.00452 38.2412 8.36448 38.2412C9.19772 38.2412 10.1144 37.9668 10.9847 37.6354C11.1707 37.4821 11.6953 37.1328 12.2107 36.728C12.7253 36.3245 15.5942 33.8911 16.8637 33.2767C17.5323 33.6388 18.63 34.1049 19.7633 34.1049C19.8289 34.1049 20.047 34.1078 20.2787 34.0565C20.6329 33.9759 21.087 33.8184 21.6579 33.7058C22.6808 33.5069 23.8804 33.3316 24.2303 33.3366C25.1712 33.3515 27.929 33.4228 28.5826 33.4228C29.2683 33.4228 30.2462 33.3629 30.6197 33.3266C31.1971 33.1355 32.4837 32.7792 33.7161 32.2104C34.9456 31.6658 37.5345 29.8689 37.9579 29.4583C38.1639 29.2744 38.3463 29.0727 38.481 28.8931C38.5317 28.8232 38.5502 28.7954 38.5502 28.7398L38.5359 26.9243C38.5359 26.9243 39.1546 26.2379 39.3913 25.9999C39.4141 25.9778 39.4155 25.9457 39.4119 25.9236C39.3057 25.5715 39.1995 24.4759 39.2601 23.3647L38.6336 23.0725C38.6053 24.2397 38.259 25.377 37.6321 26.362C36.7005 26.5095 34.9228 27.0605 34.2827 27.7889L34.6349 27.8895C35.2357 27.558 35.8794 27.3256 36.615 27.3256C37.265 27.3256 37.5516 27.4967 37.5516 27.6792C37.5516 27.8075 37.429 28.1147 37.3819 28.2123C37.3256 28.3235 37.2886 28.4654 37.1795 28.5837C36.2912 29.5585 35.2502 30.3823 34.0974 31.0229C33.2806 31.4797 32.51 31.787 31.3054 32.1284C30.9448 32.2303 30.4501 32.3764 30.1286 32.4876C29.6746 32.4734 27.3024 32.4042 25.9168 32.4042C24.5319 32.4042 21.675 32.6059 20.7669 32.8355C20.3549 32.9395 20.2523 33.1056 19.7733 33.1056C18.8788 33.1056 17.7048 32.6516 16.9842 32.3023C16.8801 32.3329 16.6192 32.4484 16.3591 32.5781C15.8473 32.8326 14.7097 34.4114 14.0482 33.9339C13.7104 34.626 12.252 35.2817 11.7531 35.9995C11.8079 35.6239 12.3967 33.1862 12.4523 32.6986C12.4623 32.6124 12.4694 32.5425 12.4145 32.4506C11.8821 31.561 10.3938 30.9958 9.55483 30.8318C9.3082 30.7834 9.18703 30.7499 9.02166 30.7121L7.69802 30.3122L6.4699 30.7121L7.88691 30.9837L6.08856 32.1754C6.40075 32.0557 8.33882 31.5182 8.48209 31.4755C8.64032 31.4284 8.85202 31.3821 9.08296 31.4626C9.34669 31.5546 10.0944 31.7257 10.5392 31.8803C10.8008 31.9709 11.2292 32.4513 11.3396 32.7072C11.3845 32.8141 11.4017 33.0386 11.4309 33.5354C11.4487 33.8483 11.3689 34.2831 11.2933 34.621C11.0952 35.5048 10.6931 36.1955 10.5663 36.4421C10.3909 36.7821 10.1486 36.8919 9.90979 37.0045C9.51776 37.1884 9.03877 37.3039 8.50632 37.311C8.14066 37.3153 7.89618 37.2961 7.74008 37.0844C7.24897 36.4215 6.03581 35.7785 4.79699 36.018C4.03716 35.5583 3.28375 34.0743 3.28375 32.8925C3.28375 32.184 3.64157 31.067 3.83402 30.5061C5.07141 30.3407 7.5462 29.3977 8.75009 28.851C9.00242 28.8382 9.69453 28.5937 10.356 28.5937C11.9747 28.5937 13.5806 30.0093 14.5557 30.9658C14.7154 30.7028 15.0155 30.3044 15.843 30.3044C16.9892 30.3044 17.6449 31.3457 17.9735 32.4178L18.5708 31.9837C18.4518 31.3174 18.136 30.702 17.6642 30.2167C17.2686 29.8211 16.5152 29.4925 15.9257 29.4925C15.5714 29.4925 15.2029 29.5716 14.9706 29.5716C14.1516 29.5716 13.818 29.2067 13.2135 28.7904C12.5606 28.3392 11.3461 27.6849 10.4793 27.6849C9.9212 27.6849 9.6703 27.9037 9.20984 27.9051C8.53269 27.9094 8.28108 27.6279 7.95676 27.2244C7.81492 27.0477 7.12922 26.4389 6.94603 26.1945C6.84054 26.054 6.65379 25.4788 6.58608 25.1909L5.65732 24.5244Z" fill="#2D2D2D"/>
<path fill-rule="evenodd" clip-rule="evenodd" d="M6.58822 25.1909C6.78495 25.4012 6.97455 25.6336 7.22046 25.8217C7.45782 26.0014 7.7579 26.1575 8.03945 26.3171C8.43718 26.5424 8.88838 26.8004 9.336 26.9422C9.72804 27.0606 10.237 27.109 10.7145 27.109C11.3952 27.109 12.1985 26.9686 12.8636 27.2787C13.3098 27.4875 13.3397 27.958 13.694 28.0955C14.2457 28.3101 15.7789 28.36 16.6285 28.36C18.3114 28.36 20.1318 28.1468 21.2074 27.8895L20.6828 27.3115C19.9387 27.4298 17.7547 27.6678 16.7525 27.6678C15.3405 27.6678 14.0069 27.4426 14.0069 26.8574C14.0069 26.454 14.4417 25.8702 15.2692 25.8702C16.1581 25.8702 17.5017 26.4076 17.7497 26.4811C17.9985 26.5552 18.0997 26.5352 18.2558 26.4632L18.7761 26.1945C18.0854 25.8731 15.6812 25.0462 14.8437 25.0462C14.4474 25.0462 14.2328 25.1032 13.9755 25.4347C13.6541 25.8481 12.7959 26.2252 11.4252 26.2252C10.6739 26.2252 9.59902 26.0912 9.36309 25.9942C8.95039 25.8246 8.14209 25.3556 7.62532 24.9821C6.95887 24.5017 6.37866 23.9685 5.9795 23.3462C5.86425 23.1679 5.80355 22.9598 5.80487 22.7475C5.8063 22.5857 5.85191 22.4353 5.86831 22.3163C5.98734 22.4816 6.11636 22.6014 6.28101 22.756C7.00449 23.4603 8.07224 23.9892 9.16992 24.1994C9.48284 24.2593 9.76082 24.3063 10.0702 24.3063C10.5385 24.3063 10.9711 24.0555 11.2463 23.8095L10.815 23.3085C10.676 23.3505 10.3881 23.3505 10.1985 23.3505C8.60469 23.3505 6.5818 22.3077 6.11636 21.1024C6.07003 20.9841 6.01443 20.9185 6.06076 20.8087C6.10709 20.6975 6.16483 20.463 6.19833 20.247C6.2917 20.354 6.48415 20.5158 6.72864 20.6733C7.32096 21.0532 8.45073 21.5792 8.67169 21.7175C9.2412 21.5536 9.66959 21.3625 10.0082 21.1872C10.4122 20.9751 10.8612 20.8629 11.3175 20.86C12.4822 20.86 13.8208 21.5244 15.0782 22.1438L15.9364 21.8052C14.8209 21.0211 12.3931 19.9234 11.0438 19.9234C10.2477 19.9234 9.49923 20.5058 8.96607 20.5058C8.31173 20.5058 6.43711 19.592 6.43711 18.83C6.43711 18.2441 7.65027 17.912 9.60116 17.6717C9.26172 18.1735 8.94238 18.6885 8.64389 19.2156L9.1407 19.4915C12.1964 15.0665 15.3747 12.1933 18.0484 10.4427C19.0192 9.80616 19.2409 9.4348 19.5801 8.74054C20.4084 7.04768 21.1896 5.74614 22.5482 5.74614C23.1826 5.74614 23.7008 6.10181 24.0564 6.54374L25.0401 6.83741L24.0443 7.5117L25.0622 7.91585C23.7343 8.28864 21.9195 9.5802 21.1853 11.4755C19.7697 11.5511 19.0869 12.6965 18.6243 13.6566C18.3121 14.3038 17.816 14.5626 17.0925 15.0523L11.3061 19.0859L12.1023 19.1957L17.4482 15.6161C18.5024 14.9047 19.0042 14.3801 19.2565 13.8747C19.7526 12.8833 20.2865 12.1462 21.335 12.1462C21.8504 12.1462 22.4021 12.3672 22.8433 12.7835L23.7806 13.09L22.757 13.7158L23.6152 14.2425C21.1632 15.0109 19.6429 16.7679 18.7597 20.1273L19.4105 20.2748C19.7362 19.1622 20.057 18.1422 20.6315 17.2419C22.0528 17.2255 23.4912 17.1735 24.9032 17.1735C28.671 17.1735 31.7987 17.3325 33.4866 17.8293L32.8893 16.7922C31.0831 16.4857 28.4629 16.3267 24.9032 16.3267C23.7093 16.3267 22.5004 16.3709 21.2994 16.3837C22.0742 15.5633 23.1904 14.8734 24.9089 14.3402L23.6893 13.6687L25.0436 12.9175L23.1982 12.2311C22.8753 11.941 22.474 11.6751 21.9694 11.5482C22.5596 9.73203 24.5732 8.67069 26.5027 7.93937L25.1513 7.38839L26.5148 6.6421L24.4157 5.97208C23.8675 5.32844 23.3394 5.03477 22.5296 5.03477C20.583 5.03477 19.7648 6.7255 18.9928 8.22378C18.5865 9.01283 18.3292 9.34499 17.6385 9.79761C16.1417 10.777 14.2328 12.2745 12.411 14.1926C11.4587 13.5062 9.5142 11.4997 8.98531 10.4049C8.77718 10.6622 8.57119 11.2232 8.57119 11.2232C8.77005 11.4334 11.0617 13.7479 11.9127 14.7287L11.7203 14.9439C10.8129 15.1243 8.45429 15.3509 7.65169 15.2419L7.20121 16.0416C7.80067 15.9824 10.1436 15.7066 11.1158 15.6496C10.8179 16.0105 10.5293 16.3792 10.2505 16.7551C7.23685 17.0972 5.22466 17.7152 5.22466 18.8286C5.22466 19.0118 5.29808 19.2199 5.29808 19.4166C5.29808 19.8828 5.12416 20.0539 4.79272 20.2627C4.57674 20.3981 4.5632 20.4929 4.65515 20.6213C4.74781 20.7517 5.21255 21.4388 5.21255 21.5742C5.21255 21.7966 4.99087 22.0212 4.81196 22.22C4.65515 22.3954 4.66156 22.4417 4.78416 22.6627L5.65804 24.5195L6.58822 25.1909ZM43.8968 14.8541C43.7043 15.0565 43.5347 15.2725 43.3921 15.502L42.9067 14.8206C44.5276 12.6609 48.8079 11.6473 51.319 11.4691V10.3108C51.0004 10.4092 50.6568 10.5197 50.3389 10.5952C49.8885 10.7036 49.475 10.8041 49.1243 10.7948C48.7737 10.7862 48.4893 10.6458 48.3581 10.4584C48.021 9.97723 48.3339 9.25019 49.4373 8.57019L48.5669 7.84671C47.8955 8.71774 47.234 9.67857 46.5612 10.2524C45.9496 10.7741 45.3088 11.0343 44.7913 10.648C44.5126 10.4398 44.4079 10.345 44.3801 9.80188C44.4171 9.00427 44.9025 7.78541 45.3302 7.00063L44.3002 6.87946C44.117 8.08122 43.6245 9.1062 43.097 9.95156C42.4398 11.0065 41.5924 11.7464 40.7199 12.3522L40.1475 11.7884C40.8518 11.3729 41.7335 10.6971 42.3401 9.76553C43.0436 8.68352 43.6145 7.34562 43.6152 6.13032L46.5947 6.41259C46.1763 6.94433 45.4856 8.15749 45.2233 9.02851C45.0871 9.48327 45.0936 9.84465 45.2582 9.96796C45.574 10.2046 46.1271 9.82683 46.6638 9.25161C47.4208 8.43833 48.1621 7.21162 48.4893 6.77397L50.644 8.56164C49.686 9.06914 48.758 9.64863 48.9426 9.97438C49.1115 10.2709 49.7252 10.1818 50.3974 9.9758C50.9541 9.8039 51.4901 9.57082 51.9954 9.28084V12.1933C50.9569 12.179 49.1978 12.3729 47.5035 12.8868C47.9062 13.4556 49.063 13.6645 49.7979 13.7657L49.4294 16.1293C47.5748 15.3502 46.1442 14.8969 43.8968 14.8541L44.6402 14.2154C46.2967 14.2497 47.9568 14.7308 48.8977 15.2041L49.0324 14.3095C48.1849 14.1976 47.1171 13.7158 46.6652 13.1698C45.9275 13.4471 45.229 13.7928 44.6402 14.2154L43.8968 14.8541Z" fill="#2D2D2D"/>
<path fill-rule="evenodd" clip-rule="evenodd" d="M35.0183 22.3631L35.7083 20.8734C34.897 19.9136 34.1548 18.8975 33.4872 17.8327L32.8899 16.7956C31.51 14.1747 32.0125 12.9223 31.2762 11.769C30.6675 10.816 27.7108 11.4091 27.2205 11.5117L28.0758 10.0954L26.3901 10.2294L27.8185 8.53228C27.9746 8.31132 28.048 8.1096 28.2134 7.52084C28.4657 6.6263 29.2341 5.09951 31.4843 5.09951C33.9819 5.09951 34.756 7.12025 35.8451 7.9984C37.3322 9.19952 38.7671 10.4637 40.1461 11.7876L40.7184 12.3514C41.4562 13.1055 42.211 13.881 42.9067 14.8197L43.3921 15.5012C46.3986 19.8905 50.1343 28.2807 51.7858 32.1233C51.9455 32.4947 52.0595 32.8724 52.1586 33.159C50.9119 32.4646 49.7006 31.7086 48.5291 30.8937L47.7878 30.372C47.3227 30.0369 46.8629 29.6944 46.4086 29.3449L45.6466 28.7461C45.1882 28.3794 44.7365 28.0044 44.2916 27.6213L45.7949 36.3765C45.9054 36.8918 46.3459 36.807 46.7015 36.353C47.0572 35.8989 47.1919 35.7749 47.0572 35.1754L45.6466 28.7461L46.4086 29.3449L47.7607 34.8076C47.8919 35.3002 48.1 35.4563 48.676 35.4812C49.2526 35.5062 49.3752 35.2852 49.2526 34.906L47.7885 30.372L48.5298 30.8937L49.9155 34.9659C50.2712 36.0087 49.9155 36.1313 49.2904 36.1313C48.6653 36.1313 48.1015 35.9837 47.7579 36.2054C47.415 36.4257 46.9845 37.028 46.4699 37.5561C46.0151 38.0209 45.3544 37.8997 45.2197 37.0272L43.5582 26.9756C42.4901 26.0203 41.4773 25.0051 40.5246 23.9348C40.1 23.752 39.6786 23.5617 39.2608 23.3639L38.6343 23.0717C38.4864 23.0006 38.3356 22.9357 38.1824 22.8771C37.7226 23.4295 37.2814 24.0453 36.7668 24.4865C36.4931 24.7217 36.3063 24.8557 35.9022 24.8557C35.7774 24.8557 35.6227 24.8543 35.4788 24.7724C35.3248 24.6861 35.1801 24.5122 35.019 24.267C34.8971 24.0802 34.7168 23.8422 34.5593 23.5777C34.2307 23.0267 33.8764 22.3346 33.5571 21.7751C33.1993 21.1457 32.8914 20.6767 32.8493 20.599C32.7852 20.4793 32.6105 20.3317 32.6105 20.3317C32.4352 20.6175 32.3062 21.1685 32.3062 21.4722L31.6811 21.2605C31.7637 20.8471 31.9298 20.3132 32.0211 20.0559C32.0211 19.8349 31.773 19.5405 31.5706 19.5405C31.2855 19.5405 30.9918 19.8534 30.8442 20.4515L30.2099 20.7273C30.284 19.7615 30.614 18.7044 31.5706 18.7044C32.3432 18.7044 32.8215 19.2932 33.1893 19.8449C33.5564 20.3951 34.7617 22.0417 35.0183 22.3631L35.4966 22.969C35.58 23.3475 35.7404 23.5663 35.8181 23.6875C35.9841 23.9448 36.168 23.927 36.4161 23.6961C36.5294 23.592 36.8936 23.2955 37.2465 22.9277C37.553 22.6076 37.8509 22.2192 37.9707 22.0224C38.3214 22.18 38.975 22.4929 39.501 22.7238C37.2436 19.9425 35.0825 16.5668 34.1451 14.2709C33.7574 13.3222 34.5151 13.0043 34.8807 13.9395C35.8744 16.4777 38.7797 20.9654 40.913 23.3183C43.3793 26.0397 47.9019 29.9771 50.8442 31.5588C50.418 30.7262 49.8542 29.5316 49.2041 28.1467C45.6252 26.1224 42.0079 22.4052 40.3221 19.2119L41.0634 19.2975C42.633 22.0723 46.3808 25.7738 48.5954 26.8501C46.5711 22.5542 43.9359 17.1092 41.8796 14.767C39.3285 11.8624 36.543 9.61571 35.2122 8.44674C33.9007 7.29417 33.3604 5.84794 31.4722 5.84794C29.9148 5.84794 29.0965 6.96914 28.7843 8.10104C28.7194 8.32201 28.6831 8.45958 28.527 8.68909L27.7914 9.57223L29.3816 9.37907L28.4614 10.6664C28.4614 10.6664 30.9547 10.1068 31.8279 11.2915C32.7673 12.5688 32.1608 14.0029 33.7032 16.7906C34.3818 18.0159 36.0226 20.2191 36.5715 20.7081L35.4959 22.969L35.0183 22.3631ZM10.5128 22.7488L10.1357 22.4929C10.4525 22.2387 10.8018 22.028 11.1743 21.8663C11.3747 21.7842 11.5885 21.7392 11.8051 21.7338C12.2278 21.7338 12.592 21.9105 12.9477 22.1001C13.5101 22.3995 14.1416 22.7516 14.6256 22.7516C14.8095 22.7516 14.9877 22.7081 15.1958 22.7081C15.6748 22.7081 16.1345 22.9227 16.3975 22.9227C16.5572 22.9227 16.6677 22.7794 16.7725 22.629C17.0362 22.2491 17.4004 21.9675 17.8659 21.773C18.3655 21.5641 18.9664 21.4807 19.62 21.4807C20.1347 21.4807 20.6286 21.5548 20.8859 21.6104C20.8859 21.6104 20.4932 22.0837 20.3948 22.1885C19.8752 22.1885 18.8852 22.1707 18.2494 22.428C17.8588 22.5855 17.719 22.8122 17.719 23.1365C17.719 23.6041 18.2422 23.788 18.8253 23.9648C19.1688 24.0688 19.5545 24.0945 19.8795 24.0945C20.2801 24.0945 21.0477 23.9441 21.8061 23.7773C22.7221 23.5756 23.5731 23.3347 23.8219 23.2427L24.1526 23.8372C23.1334 24.1822 22.0913 24.5093 21.124 24.7061C20.5773 24.8173 20.0563 24.8857 19.5915 24.8857C18.8153 24.8857 17.9728 24.5599 17.28 24.2299C16.6955 23.9512 16.1744 23.6761 15.7083 23.6761C15.1844 23.6761 14.6919 23.8571 14.2064 24.1344C13.9691 24.2706 13.2527 24.7638 12.6148 25.014C12.1251 25.2086 11.726 25.3162 11.2299 25.3162C10.7879 25.3162 10.5242 25.2535 10.2954 25.0753L11.0638 24.6049C11.1629 24.7025 11.3403 24.7203 11.4501 24.7203C11.5606 24.7203 11.6925 24.7061 11.994 24.5813C12.1665 24.5086 12.4174 24.3547 12.5642 24.2599C12.8678 24.0638 12.9683 23.9491 13.0881 23.855C13.3205 23.6711 13.406 23.4273 13.1095 23.1629C12.9643 23.0259 12.8063 22.9032 12.6376 22.7965C12.3717 22.6376 12.18 22.4822 11.6996 22.4822C11.1322 22.48 10.7323 22.6361 10.5128 22.7488Z" fill="#2D2D2D"/>
<path fill-rule="evenodd" clip-rule="evenodd" d="M21.2167 23.0539C21.2167 23.0539 20.7598 22.9271 20.6001 22.9149C20.8877 22.5335 21.2356 22.2015 21.6301 21.932C22.2538 21.51 22.9067 21.2791 23.8946 21.2192C24.1634 21.2028 24.7108 21.1508 25.0166 21.1636C25.2924 21.1765 25.7586 21.1943 26.1877 21.2734C26.4913 21.3304 26.7743 21.4152 27.0095 21.4516C27.1528 21.4737 27.651 21.4666 27.8242 21.4388C28.5235 21.329 29.3631 21.0588 29.8051 20.8179L29.9889 21.4901C29.0445 21.9719 27.9775 22.4367 27.001 22.4367C26.5034 22.4367 25.9753 22.3989 25.4827 22.3533C24.6146 22.2699 23.8633 22.1544 23.6045 22.1544C22.9017 22.1544 21.8903 22.4816 21.2167 23.0539ZM20.5196 26.7918L19.6315 26.3855C20.8632 25.7618 22.7449 25.1367 23.5169 25.0127C24.2895 24.8915 25.1727 24.7981 25.6809 24.627C25.914 25.2158 26.3744 25.8452 27.0366 25.8452C27.2782 25.8452 27.6753 25.6627 28.0744 25.486C28.5228 25.2885 28.9732 25.0725 29.2063 24.9678C29.4586 24.8566 30.2769 24.4973 30.9705 24.188C31.3174 24.0303 31.6622 23.8677 32.0047 23.7004L32.4709 23.9528C32.3312 24.565 32.0981 25.3184 31.8358 25.8573C31.7331 26.069 31.6305 26.2429 31.52 26.3684C31.3176 26.5965 30.9904 26.9001 30.5635 27.2023C30.0973 27.5338 29.5292 27.8731 28.9262 28.2188C28.4565 28.4903 27.9839 28.7648 27.5049 28.9843L27.2561 28.5331C27.9946 28.1154 28.7451 27.5865 29.4052 27.0976C29.7174 26.8666 30.0196 26.6328 30.2356 26.4347C30.396 26.2885 30.4965 26.1674 30.5763 26.049C30.7723 25.7611 31.0916 25.1973 31.1893 24.9271C30.9141 25.0618 29.8721 25.5537 29.4059 25.7974C28.8799 26.0747 28.0267 26.5088 27.5484 26.7355C27.172 26.9122 26.8363 27.0099 26.5954 27.0099C26.0615 27.0099 25.8192 26.6257 25.688 26.3933C25.3509 25.7917 24.9895 25.7361 24.0386 25.724C22.9352 25.7105 21.4213 26.1667 20.5196 26.7918ZM25.703 24.019C25.703 24.019 25.574 23.4944 25.5127 23.3034C25.5127 23.3034 25.6659 23.2535 25.8683 23.2535C26.1991 23.2535 27.0166 23.3455 27.3559 23.3455C28.6332 23.3455 29.1044 22.9434 29.4793 22.6049C29.7993 22.3169 30.1279 22.0817 30.9968 22.0817C31.7631 22.0817 32.6426 22.391 32.8943 22.5129L32.8394 23.2107C32.4256 22.9895 31.9649 22.8703 31.4958 22.8629C31.1793 22.8629 30.8942 22.8879 30.6932 22.9926C30.4672 23.1095 30.3297 23.2849 30.1173 23.4588C29.892 23.6441 29.5834 23.8237 29.1792 23.9727C28.7751 24.1217 28.2747 24.2236 27.5284 24.2236C26.5433 24.2222 26.0095 24.0575 25.703 24.019Z" fill="#2D2D2D"/>
<path fill-rule="evenodd" clip-rule="evenodd" d="M17.6135 29.2865L18.2023 29.0427C18.7419 29.2516 19.5216 29.4882 20.0641 29.4882C20.3905 29.4882 20.66 29.3713 20.8816 29.2723C21.0556 29.1946 23.0171 28.2323 23.9908 27.8788C24.3002 27.7676 24.6145 27.7048 24.767 27.7048C25.0001 27.7048 25.0136 27.8089 25.0792 27.9165C25.2631 28.2102 26.7115 30.2773 26.8583 30.4362C28.0865 30.0592 29.3445 29.5061 30.0701 28.8104C30.8264 28.0812 31.4544 27.2373 32.0609 26.5843C32.2947 26.332 32.5841 26.1039 32.7274 26.0277C33.3554 25.6934 35.3084 25.6656 36.1295 25.7019L35.6427 26.3912C34.1957 26.3912 33.386 26.5401 33.0218 26.8146C32.8678 26.93 32.6355 27.1638 32.4138 27.4525C31.9198 28.0969 31.3802 28.9786 31.1643 29.1511C31.5877 29.4448 32.051 29.7021 32.7858 29.7021C34.0118 29.7021 34.89 28.9351 35.3711 28.5017L35.7831 28.7469C35.4787 29.1425 35.1302 29.5474 34.6861 29.8496C34.1936 30.1839 33.5728 30.4006 33.2057 30.5025C32.4943 30.3678 30.9276 30.0513 30.5605 29.9779C29.2055 30.5303 26.9988 31.4227 26.2575 31.6458C26.0935 31.6868 25.9263 31.7133 25.7578 31.725C25.1719 31.757 24.3572 31.7528 23.6152 31.7442C23.0884 31.7371 22.5902 31.7399 22.34 31.6943L21.6864 31.0122C22.263 31.1219 22.4875 31.1554 23.0264 31.1554C24.3016 31.1554 25.122 30.9423 25.3929 30.8732C25.6202 30.8147 25.658 30.6836 25.5903 30.4776C25.4827 30.1504 25.2938 29.8396 25.0065 29.5075C24.8103 29.2938 24.5949 29.0986 24.3629 28.9244C24.1875 28.8047 24.0165 28.774 23.5353 28.9387C23.0891 29.0905 21.7049 29.8396 21.1083 30.1568C20.8132 30.3144 20.5837 30.36 20.0541 30.2345C19.4931 30.1027 18.1517 29.6123 17.6135 29.2865ZM21.4519 13.9238C21.5851 13.9238 21.713 13.8709 21.8072 13.7766C21.9014 13.6824 21.9544 13.5546 21.9544 13.4213C21.9544 13.288 21.9014 13.1602 21.8072 13.066C21.713 12.9717 21.5851 12.9188 21.4519 12.9188C21.3186 12.9188 21.1908 12.9717 21.0965 13.066C21.0023 13.1602 20.9494 13.288 20.9494 13.4213C20.9494 13.5546 21.0023 13.6824 21.0965 13.7766C21.1908 13.8709 21.3186 13.9238 21.4519 13.9238Z" fill="#2D2D2D"/>
<defs>
<clipPath id="clip0_304_174">
<rect width="166.642" height="35" fill="white" transform="translate(414.83 110.241)"/>
</clipPath>
<clipPath id="clip1_304_174">
<rect width="100.344" height="35" fill="white" transform="translate(244.486 110.241)"/>
</clipPath>
<clipPath id="clip2_304_174">
<rect width="88.4861" height="35" fill="white" transform="translate(86 110.241)"/>
</clipPath>
<clipPath id="clip3_304_174">
<rect width="140.258" height="35" fill="white" transform="translate(794.834 3.24121)"/>
</clipPath>
<clipPath id="clip4_304_174">
<rect width="115.581" height="35" fill="white" transform="translate(432.928 3.24121)"/>
</clipPath>
<clipPath id="clip5_304_174">
<rect width="60.0916" height="40" fill="white" transform="translate(302.836 0.241211)"/>
</clipPath>
<clipPath id="clip6_304_174">
<rect width="29.4812" height="35" fill="white" transform="translate(203.354 3.24121)"/>
</clipPath>
</defs>
</svg>
