<svg width="181" height="30" viewBox="0 0 181 30" fill="none" xmlns="http://www.w3.org/2000/svg">
<mask id="mask0_304_673" style="mask-type:alpha" maskUnits="userSpaceOnUse" x="0" y="0" width="31" height="30">
<circle cx="15.5" cy="15" r="15" fill="white"/>
</mask>
<g mask="url(#mask0_304_673)">
<path d="M22.4984 0L16 -1.5L9.4984 0C7.8484 0 0.5 6.6 0.5 8.25L-1.5 20C-1.5 21.65 7.84944 30 9.49944 30H22.4984C24.1484 30 29.5 24.65 29.5 23L32.5 9.5C32.5 7.85 24.1484 0 22.4984 0ZM20.9984 3V7.5H17.9984C17.0984 7.5 16.4984 8.1 16.4984 9V12H20.9984V16.5H16.4984V27H11.9984V16.5H8.9984V12H11.9984V8.25C11.9984 5.4 14.3984 3 17.2484 3H20.9984Z" fill="#2D2D2D"/>
</g>
<mask id="mask1_304_673" style="mask-type:alpha" maskUnits="userSpaceOnUse" x="50" y="0" width="31" height="30">
<g clip-path="url(#clip0_304_673)">
<path d="M78.3364 0H52.6636C51.4686 0 50.5 0.968628 50.5 2.16362V27.8364C50.5 29.0314 51.4686 30 52.6636 30H78.3364C79.5314 30 80.5 29.0314 80.5 27.8364V2.16362C80.5 0.968628 79.5314 0 78.3364 0V0ZM61.1412 22.6758H57.488V11.6851H61.1412V22.6758ZM59.3147 10.1843H59.2909C58.065 10.1843 57.2722 9.34044 57.2722 8.28575C57.2722 7.20726 58.0893 6.38672 59.339 6.38672C60.5887 6.38672 61.3577 7.20726 61.3815 8.28575C61.3815 9.34044 60.5887 10.1843 59.3147 10.1843ZM74.3138 22.6758H70.6611V16.796C70.6611 15.3184 70.1321 14.3106 68.8103 14.3106C67.8012 14.3106 67.2001 14.9904 66.936 15.6466C66.8394 15.8814 66.8158 16.2096 66.8158 16.5381V22.6758H63.1629C63.1629 22.6758 63.2107 12.7162 63.1629 11.6851H66.8158V13.2413C67.3013 12.4924 68.1699 11.4272 70.1081 11.4272C72.5116 11.4272 74.3138 12.998 74.3138 16.3737V22.6758Z" fill="white"/>
</g>
</mask>
<g mask="url(#mask1_304_673)">
<circle cx="65.5" cy="15" r="15" fill="#2D2D2D"/>
</g>
<rect x="100.5" width="30" height="30" rx="15" fill="#2D2D2D"/>
<g clip-path="url(#clip1_304_673)">
<path d="M119.169 7H111.831C109.443 7 107.5 8.94287 107.5 11.331V18.669C107.5 21.0571 109.443 23 111.831 23H119.169C121.557 23 123.5 21.0571 123.5 18.669V11.331C123.5 8.94287 121.557 7 119.169 7V7ZM115.5 19.3749C113.088 19.3749 111.125 17.4123 111.125 15C111.125 12.5876 113.088 10.6251 115.5 10.6251C117.912 10.6251 119.875 12.5876 119.875 15C119.875 17.4123 117.912 19.3749 115.5 19.3749ZM119.979 11.6569C119.267 11.6569 118.687 11.077 118.687 10.3641C118.687 9.65124 119.267 9.07129 119.979 9.07129C120.692 9.07129 121.272 9.65124 121.272 10.3641C121.272 11.077 120.692 11.6569 119.979 11.6569Z" fill="white"/>
<path d="M115.501 11.5632C113.606 11.5632 112.064 13.105 112.064 15.0001C112.064 16.8952 113.606 18.4371 115.501 18.4371C117.396 18.4371 118.938 16.8952 118.938 15.0001C118.938 13.105 117.396 11.5632 115.501 11.5632Z" fill="white"/>
<path d="M119.979 10.0094C119.784 10.0094 119.625 10.1686 119.625 10.3641C119.625 10.5597 119.784 10.7189 119.979 10.7189C120.175 10.7189 120.334 10.5598 120.334 10.3641C120.334 10.1685 120.175 10.0094 119.979 10.0094Z" fill="white"/>
</g>
<mask id="mask2_304_673" style="mask-type:alpha" maskUnits="userSpaceOnUse" x="150" y="0" width="31" height="30">
<g clip-path="url(#clip2_304_673)">
<path d="M178.336 0H152.664C151.469 0 150.5 0.968628 150.5 2.16362V27.8364C150.5 29.0314 151.469 30 152.664 30H178.336C179.531 30 180.5 29.0314 180.5 27.8364V2.16362C180.5 0.968628 179.531 0 178.336 0V0ZM172.349 11.6954C172.355 11.843 172.359 11.9913 172.359 12.1404C172.359 16.6898 168.896 21.936 162.563 21.9363H162.563H162.563C160.618 21.9363 158.809 21.3663 157.285 20.3897C157.555 20.4215 157.829 20.4373 158.107 20.4373C159.72 20.4373 161.204 19.8871 162.383 18.9635C160.876 18.9356 159.605 17.9402 159.166 16.5722C159.376 16.6125 159.592 16.6344 159.813 16.6344C160.128 16.6344 160.432 16.5921 160.721 16.5131C159.146 16.1977 157.959 14.8055 157.959 13.1383C157.959 13.1227 157.959 13.1087 157.96 13.0943C158.424 13.3523 158.954 13.5075 159.519 13.5249C158.595 12.908 157.987 11.8536 157.987 10.659C157.987 10.0282 158.157 9.43726 158.453 8.92845C160.151 11.0117 162.688 12.3818 165.55 12.5258C165.491 12.2736 165.46 12.0108 165.46 11.7407C165.46 9.84009 167.002 8.29811 168.904 8.29811C169.894 8.29811 170.789 8.71674 171.417 9.38599C172.201 9.23126 172.938 8.9447 173.603 8.55034C173.346 9.35394 172.8 10.0282 172.089 10.4546C172.786 10.3713 173.449 10.1866 174.066 9.91241C173.605 10.603 173.021 11.2095 172.349 11.6954Z" fill="white"/>
</g>
</mask>
<g mask="url(#mask2_304_673)">
<circle cx="165.5" cy="15" r="15" fill="#2D2D2D"/>
</g>
<defs>
<clipPath id="clip0_304_673">
<rect width="30" height="30" fill="white" transform="translate(50.5)"/>
</clipPath>
<clipPath id="clip1_304_673">
<rect width="16" height="16" fill="white" transform="translate(107.5 7)"/>
</clipPath>
<clipPath id="clip2_304_673">
<rect width="30" height="30" fill="white" transform="translate(150.5)"/>
</clipPath>
</defs>
</svg>
